<?xml version="1.0"?>
<svg xmlns="http://www.w3.org/2000/svg" xmlns:xlink="http://www.w3.org/1999/xlink" viewBox="0 0 389.500000 208.000000" width="194.750000mm" height="104.000000mm" version="1.1">
<a xlink:href="delay-0x600013e769a0.svg">
<rect x="1.000000" y="1.000000" width="388.500000" height="207.000000" rx="0" ry="0" style="stroke:none;fill:#cccccc;"/>
<rect x="0.000000" y="0.000000" width="388.500000" height="207.000000" rx="0" ry="0" style="stroke:none;fill:#ffffff;"/>
</a>
<text x="10.000000" y="7.000000" font-family="Arial" font-size="7"></text>
<rect x="139.750000" y="35.000000" width="24.000000" height="24.000000" rx="0" ry="0" style="stroke:none;fill:#cccccc;"/>
<rect x="138.750000" y="34.000000" width="24.000000" height="24.000000" rx="0" ry="0" style="stroke:none;fill:#f44800;"/>
<text x="150.750000" y="48.000000" font-family="Arial" font-size="7" text-anchor="middle" fill="#FFFFFF">2</text>
<circle cx="140.750000" cy="36.000000" r="1"/>
<line x1="129.750000" y1="25.000000" x2="129.750000" y2="67.000000"  style="stroke: black; stroke-linecap:round; stroke-width:0.25; stroke-dasharray:3,3;"/>
<line x1="129.750000" y1="67.000000" x2="171.750000" y2="67.000000"  style="stroke: black; stroke-linecap:round; stroke-width:0.25; stroke-dasharray:3,3;"/>
<line x1="171.750000" y1="67.000000" x2="171.750000" y2="25.000000"  style="stroke: black; stroke-linecap:round; stroke-width:0.25; stroke-dasharray:3,3;"/>
<line x1="129.750000" y1="25.000000" x2="134.750000" y2="25.000000"  style="stroke: black; stroke-linecap:round; stroke-width:0.25; stroke-dasharray:3,3;"/>
<line x1="147.650000" y1="25.000000" x2="171.750000" y2="25.000000"  style="stroke: black; stroke-linecap:round; stroke-width:0.25; stroke-dasharray:3,3;"/>
<text x="134.750000" y="27.000000" font-family="Arial" font-size="7">NB</text>
<rect x="35.000000" y="87.000000" width="193.500000" height="24.000000" rx="0" ry="0" style="stroke:none;fill:#cccccc;"/>
<rect x="34.000000" y="86.000000" width="193.500000" height="24.000000" rx="0" ry="0" style="stroke:none;fill:#477881;"/>
<text x="130.750000" y="100.000000" font-family="Arial" font-size="7" text-anchor="middle" fill="#FFFFFF">hslider(mod_width, 0.02f, 0.0f, 0.5f, 0.01f)</text>
<circle cx="36.000000" cy="88.000000" r="1"/>
<line x1="25.000000" y1="77.000000" x2="25.000000" y2="119.000000"  style="stroke: black; stroke-linecap:round; stroke-width:0.25; stroke-dasharray:3,3;"/>
<line x1="25.000000" y1="119.000000" x2="236.500000" y2="119.000000"  style="stroke: black; stroke-linecap:round; stroke-width:0.25; stroke-dasharray:3,3;"/>
<line x1="236.500000" y1="119.000000" x2="236.500000" y2="77.000000"  style="stroke: black; stroke-linecap:round; stroke-width:0.25; stroke-dasharray:3,3;"/>
<line x1="25.000000" y1="77.000000" x2="30.000000" y2="77.000000"  style="stroke: black; stroke-linecap:round; stroke-width:0.25; stroke-dasharray:3,3;"/>
<line x1="65.475000" y1="77.000000" x2="236.500000" y2="77.000000"  style="stroke: black; stroke-linecap:round; stroke-width:0.25; stroke-dasharray:3,3;"/>
<text x="30.000000" y="79.000000" font-family="Arial" font-size="7">mod_width</text>
<a xlink:href="oscr-0x600013e75680.svg">
<rect x="67.250000" y="129.000000" width="129.000000" height="24.000000" rx="0" ry="0" style="stroke:none;fill:#cccccc;"/>
<rect x="66.250000" y="128.000000" width="129.000000" height="24.000000" rx="0" ry="0" style="stroke:none;fill:#003366;"/>
</a>
<a xlink:href="oscr-0x600013e75680.svg">
<text x="130.750000" y="142.000000" font-family="Arial" font-size="7" text-anchor="middle" fill="#FFFFFF">oscr(hslider(...e+01f, 0.1f))</text>
</a>
<circle cx="68.250000" cy="130.000000" r="1"/>
<rect x="254.500000" y="103.000000" width="24.000000" height="24.000000" rx="0" ry="0" style="stroke:none;fill:#cccccc;"/>
<rect x="253.500000" y="102.000000" width="24.000000" height="24.000000" rx="0" ry="0" style="stroke:none;fill:#4B71A1;"/>
<text x="265.500000" y="116.000000" font-family="Arial" font-size="7" text-anchor="middle" fill="#FFFFFF">*</text>
<circle cx="255.500000" cy="104.000000" r="1"/>
<line x1="250.500000" y1="109.000000" x2="253.500000" y2="110.000000"  transform="rotate(0.000000,253.500000,110.000000)" style="stroke: black; stroke-width:0.25;"/>
<line x1="250.500000" y1="111.000000" x2="253.500000" y2="110.000000"  transform="rotate(0.000000,253.500000,110.000000)" style="stroke: black; stroke-width:0.25;"/>
<line x1="250.500000" y1="117.000000" x2="253.500000" y2="118.000000"  transform="rotate(0.000000,253.500000,118.000000)" style="stroke: black; stroke-width:0.25;"/>
<line x1="250.500000" y1="119.000000" x2="253.500000" y2="118.000000"  transform="rotate(0.000000,253.500000,118.000000)" style="stroke: black; stroke-width:0.25;"/>
<rect x="294.500000" y="77.000000" width="24.000000" height="24.000000" rx="0" ry="0" style="stroke:none;fill:#cccccc;"/>
<rect x="293.500000" y="76.000000" width="24.000000" height="24.000000" rx="0" ry="0" style="stroke:none;fill:#4B71A1;"/>
<text x="305.500000" y="90.000000" font-family="Arial" font-size="7" text-anchor="middle" fill="#FFFFFF">+</text>
<circle cx="295.500000" cy="78.000000" r="1"/>
<line x1="290.500000" y1="83.000000" x2="293.500000" y2="84.000000"  transform="rotate(0.000000,293.500000,84.000000)" style="stroke: black; stroke-width:0.25;"/>
<line x1="290.500000" y1="85.000000" x2="293.500000" y2="84.000000"  transform="rotate(0.000000,293.500000,84.000000)" style="stroke: black; stroke-width:0.25;"/>
<line x1="290.500000" y1="91.000000" x2="293.500000" y2="92.000000"  transform="rotate(0.000000,293.500000,92.000000)" style="stroke: black; stroke-width:0.25;"/>
<line x1="290.500000" y1="93.000000" x2="293.500000" y2="92.000000"  transform="rotate(0.000000,293.500000,92.000000)" style="stroke: black; stroke-width:0.25;"/>
<rect x="158.850000" y="161.000000" width="25.800000" height="24.000000" rx="0" ry="0" style="stroke:none;fill:#cccccc;"/>
<rect x="157.850000" y="160.000000" width="25.800000" height="24.000000" rx="0" ry="0" style="stroke:none;fill:#f44800;"/>
<text x="170.750000" y="174.000000" font-family="Arial" font-size="7" text-anchor="middle" fill="#FFFFFF">1449</text>
<circle cx="159.850000" cy="162.000000" r="1"/>
<rect x="334.500000" y="93.000000" width="24.000000" height="24.000000" rx="0" ry="0" style="stroke:none;fill:#cccccc;"/>
<rect x="333.500000" y="92.000000" width="24.000000" height="24.000000" rx="0" ry="0" style="stroke:none;fill:#4B71A1;"/>
<text x="345.500000" y="106.000000" font-family="Arial" font-size="7" text-anchor="middle" fill="#FFFFFF">*</text>
<circle cx="335.500000" cy="94.000000" r="1"/>
<line x1="330.500000" y1="99.000000" x2="333.500000" y2="100.000000"  transform="rotate(0.000000,333.500000,100.000000)" style="stroke: black; stroke-width:0.25;"/>
<line x1="330.500000" y1="101.000000" x2="333.500000" y2="100.000000"  transform="rotate(0.000000,333.500000,100.000000)" style="stroke: black; stroke-width:0.25;"/>
<line x1="330.500000" y1="107.000000" x2="333.500000" y2="108.000000"  transform="rotate(0.000000,333.500000,108.000000)" style="stroke: black; stroke-width:0.25;"/>
<line x1="330.500000" y1="109.000000" x2="333.500000" y2="108.000000"  transform="rotate(0.000000,333.500000,108.000000)" style="stroke: black; stroke-width:0.25;"/>
<line x1="15.000000" y1="15.000000" x2="15.000000" y2="193.000000"  style="stroke: black; stroke-linecap:round; stroke-width:0.25; stroke-dasharray:3,3;"/>
<line x1="15.000000" y1="193.000000" x2="374.500000" y2="193.000000"  style="stroke: black; stroke-linecap:round; stroke-width:0.25; stroke-dasharray:3,3;"/>
<line x1="374.500000" y1="193.000000" x2="374.500000" y2="15.000000"  style="stroke: black; stroke-linecap:round; stroke-width:0.25; stroke-dasharray:3,3;"/>
<line x1="15.000000" y1="15.000000" x2="20.000000" y2="15.000000"  style="stroke: black; stroke-linecap:round; stroke-width:0.25; stroke-dasharray:3,3;"/>
<line x1="61.925000" y1="15.000000" x2="374.500000" y2="15.000000"  style="stroke: black; stroke-linecap:round; stroke-width:0.25; stroke-dasharray:3,3;"/>
<text x="20.000000" y="17.000000" font-family="Arial" font-size="7">delayval(4)</text>
<line x1="376.500000" y1="103.000000" x2="379.500000" y2="104.000000"  transform="rotate(0.000000,379.500000,104.000000)" style="stroke: black; stroke-width:0.25;"/>
<line x1="376.500000" y1="105.000000" x2="379.500000" y2="104.000000"  transform="rotate(0.000000,379.500000,104.000000)" style="stroke: black; stroke-width:0.25;"/>
<line x1="162.750000" y1="46.000000" x2="166.750000" y2="46.000000"  style="stroke:black; stroke-linecap:round; stroke-width:0.25;"/>
<line x1="166.750000" y1="46.000000" x2="176.750000" y2="46.000000"  style="stroke:black; stroke-linecap:round; stroke-width:0.25;"/>
<line x1="176.750000" y1="46.000000" x2="281.500000" y2="46.000000"  style="stroke:black; stroke-linecap:round; stroke-width:0.25;"/>
<line x1="183.650000" y1="172.000000" x2="187.650000" y2="172.000000"  style="stroke:black; stroke-linecap:round; stroke-width:0.25;"/>
<line x1="187.650000" y1="172.000000" x2="321.500000" y2="172.000000"  style="stroke:black; stroke-linecap:round; stroke-width:0.25;"/>
<line x1="195.250000" y1="140.000000" x2="199.250000" y2="140.000000"  style="stroke:black; stroke-linecap:round; stroke-width:0.25;"/>
<line x1="199.250000" y1="140.000000" x2="241.500000" y2="140.000000"  style="stroke:black; stroke-linecap:round; stroke-width:0.25;"/>
<line x1="227.500000" y1="98.000000" x2="231.500000" y2="98.000000"  style="stroke:black; stroke-linecap:round; stroke-width:0.25;"/>
<line x1="231.500000" y1="98.000000" x2="241.500000" y2="98.000000"  style="stroke:black; stroke-linecap:round; stroke-width:0.25;"/>
<line x1="241.500000" y1="98.000000" x2="249.500000" y2="98.000000"  style="stroke:black; stroke-linecap:round; stroke-width:0.25;"/>
<line x1="241.500000" y1="118.000000" x2="249.500000" y2="118.000000"  style="stroke:black; stroke-linecap:round; stroke-width:0.25;"/>
<line x1="241.500000" y1="140.000000" x2="241.500000" y2="118.000000"  style="stroke:black; stroke-linecap:round; stroke-width:0.25;"/>
<line x1="241.500000" y1="140.000000" x2="241.500000" y2="140.000000"  style="stroke:black; stroke-linecap:round; stroke-width:0.25;"/>
<line x1="249.500000" y1="98.000000" x2="249.500000" y2="110.000000"  style="stroke:black; stroke-linecap:round; stroke-width:0.25;"/>
<line x1="249.500000" y1="110.000000" x2="249.500000" y2="110.000000"  style="stroke:black; stroke-linecap:round; stroke-width:0.25;"/>
<line x1="249.500000" y1="110.000000" x2="253.500000" y2="110.000000"  style="stroke:black; stroke-linecap:round; stroke-width:0.25;"/>
<line x1="249.500000" y1="118.000000" x2="253.500000" y2="118.000000"  style="stroke:black; stroke-linecap:round; stroke-width:0.25;"/>
<line x1="277.500000" y1="114.000000" x2="281.500000" y2="114.000000"  style="stroke:black; stroke-linecap:round; stroke-width:0.25;"/>
<line x1="281.500000" y1="46.000000" x2="289.500000" y2="46.000000"  style="stroke:black; stroke-linecap:round; stroke-width:0.25;"/>
<line x1="281.500000" y1="92.000000" x2="289.500000" y2="92.000000"  style="stroke:black; stroke-linecap:round; stroke-width:0.25;"/>
<line x1="281.500000" y1="114.000000" x2="281.500000" y2="92.000000"  style="stroke:black; stroke-linecap:round; stroke-width:0.25;"/>
<line x1="281.500000" y1="114.000000" x2="281.500000" y2="114.000000"  style="stroke:black; stroke-linecap:round; stroke-width:0.25;"/>
<line x1="289.500000" y1="46.000000" x2="289.500000" y2="84.000000"  style="stroke:black; stroke-linecap:round; stroke-width:0.25;"/>
<line x1="289.500000" y1="84.000000" x2="289.500000" y2="84.000000"  style="stroke:black; stroke-linecap:round; stroke-width:0.25;"/>
<line x1="289.500000" y1="84.000000" x2="293.500000" y2="84.000000"  style="stroke:black; stroke-linecap:round; stroke-width:0.25;"/>
<line x1="289.500000" y1="92.000000" x2="293.500000" y2="92.000000"  style="stroke:black; stroke-linecap:round; stroke-width:0.25;"/>
<line x1="317.500000" y1="88.000000" x2="321.500000" y2="88.000000"  style="stroke:black; stroke-linecap:round; stroke-width:0.25;"/>
<line x1="321.500000" y1="88.000000" x2="329.500000" y2="88.000000"  style="stroke:black; stroke-linecap:round; stroke-width:0.25;"/>
<line x1="321.500000" y1="108.000000" x2="329.500000" y2="108.000000"  style="stroke:black; stroke-linecap:round; stroke-width:0.25;"/>
<line x1="321.500000" y1="172.000000" x2="321.500000" y2="108.000000"  style="stroke:black; stroke-linecap:round; stroke-width:0.25;"/>
<line x1="321.500000" y1="172.000000" x2="321.500000" y2="172.000000"  style="stroke:black; stroke-linecap:round; stroke-width:0.25;"/>
<line x1="329.500000" y1="88.000000" x2="329.500000" y2="100.000000"  style="stroke:black; stroke-linecap:round; stroke-width:0.25;"/>
<line x1="329.500000" y1="100.000000" x2="329.500000" y2="100.000000"  style="stroke:black; stroke-linecap:round; stroke-width:0.25;"/>
<line x1="329.500000" y1="100.000000" x2="333.500000" y2="100.000000"  style="stroke:black; stroke-linecap:round; stroke-width:0.25;"/>
<line x1="329.500000" y1="108.000000" x2="333.500000" y2="108.000000"  style="stroke:black; stroke-linecap:round; stroke-width:0.25;"/>
<line x1="357.500000" y1="104.000000" x2="361.500000" y2="104.000000"  style="stroke:black; stroke-linecap:round; stroke-width:0.25;"/>
<line x1="361.500000" y1="104.000000" x2="361.500000" y2="104.000000"  style="stroke:black; stroke-linecap:round; stroke-width:0.25;"/>
<line x1="361.500000" y1="104.000000" x2="365.500000" y2="104.000000"  style="stroke:black; stroke-linecap:round; stroke-width:0.25;"/>
<line x1="365.500000" y1="104.000000" x2="369.500000" y2="104.000000"  style="stroke:black; stroke-linecap:round; stroke-width:0.25;"/>
<line x1="369.500000" y1="104.000000" x2="379.500000" y2="104.000000"  style="stroke:black; stroke-linecap:round; stroke-width:0.25;"/>
</svg>
