<?xml version="1.0"?>
<svg xmlns="http://www.w3.org/2000/svg" xmlns:xlink="http://www.w3.org/1999/xlink" viewBox="0 0 429.000000 152.000000" width="214.500000mm" height="76.000000mm" version="1.1">
<a xlink:href="delayfilters-0x60001784a370.svg">
<rect x="1.000000" y="1.000000" width="428.000000" height="151.000000" rx="0" ry="0" style="stroke:none;fill:#cccccc;"/>
<rect x="0.000000" y="0.000000" width="428.000000" height="151.000000" rx="0" ry="0" style="stroke:none;fill:#ffffff;"/>
</a>
<text x="10.000000" y="7.000000" font-family="Arial" font-size="7"></text>
<a xlink:href="filterbank-0x600017845b90.svg">
<rect x="33.000000" y="65.000000" width="90.300000" height="24.000000" rx="0" ry="0" style="stroke:none;fill:#cccccc;"/>
<rect x="32.000000" y="64.000000" width="90.300000" height="24.000000" rx="0" ry="0" style="stroke:none;fill:#003366;"/>
</a>
<a xlink:href="filterbank-0x600017845b90.svg">
<text x="77.150000" y="78.000000" font-family="Arial" font-size="7" text-anchor="middle" fill="#FFFFFF">filterbank(3)(7000)</text>
</a>
<circle cx="34.000000" cy="66.000000" r="1"/>
<line x1="29.000000" y1="75.000000" x2="32.000000" y2="76.000000"  transform="rotate(0.000000,32.000000,76.000000)" style="stroke: black; stroke-width:0.25;"/>
<line x1="29.000000" y1="77.000000" x2="32.000000" y2="76.000000"  transform="rotate(0.000000,32.000000,76.000000)" style="stroke: black; stroke-width:0.25;"/>
<a xlink:href="g-0x60000fa369a0.svg">
<rect x="139.300000" y="49.000000" width="38.700000" height="24.000000" rx="0" ry="0" style="stroke:none;fill:#cccccc;"/>
<rect x="138.300000" y="48.000000" width="38.700000" height="24.000000" rx="0" ry="0" style="stroke:none;fill:#003366;"/>
</a>
<a xlink:href="g-0x60000fa369a0.svg">
<text x="157.650000" y="62.000000" font-family="Arial" font-size="7" text-anchor="middle" fill="#FFFFFF">g(0)(8)</text>
</a>
<circle cx="140.300000" cy="50.000000" r="1"/>
<rect x="194.000000" y="45.000000" width="24.000000" height="24.000000" rx="0" ry="0" style="stroke:none;fill:#cccccc;"/>
<rect x="193.000000" y="44.000000" width="24.000000" height="24.000000" rx="0" ry="0" style="stroke:none;fill:#4B71A1;"/>
<text x="205.000000" y="58.000000" font-family="Arial" font-size="7" text-anchor="middle" fill="#FFFFFF">*</text>
<circle cx="195.000000" cy="46.000000" r="1"/>
<line x1="190.000000" y1="51.000000" x2="193.000000" y2="52.000000"  transform="rotate(0.000000,193.000000,52.000000)" style="stroke: black; stroke-width:0.25;"/>
<line x1="190.000000" y1="53.000000" x2="193.000000" y2="52.000000"  transform="rotate(0.000000,193.000000,52.000000)" style="stroke: black; stroke-width:0.25;"/>
<line x1="190.000000" y1="59.000000" x2="193.000000" y2="60.000000"  transform="rotate(0.000000,193.000000,60.000000)" style="stroke: black; stroke-width:0.25;"/>
<line x1="190.000000" y1="61.000000" x2="193.000000" y2="60.000000"  transform="rotate(0.000000,193.000000,60.000000)" style="stroke: black; stroke-width:0.25;"/>
<a xlink:href="g-0x60000f9cb600.svg">
<rect x="139.300000" y="89.000000" width="38.700000" height="24.000000" rx="0" ry="0" style="stroke:none;fill:#cccccc;"/>
<rect x="138.300000" y="88.000000" width="38.700000" height="24.000000" rx="0" ry="0" style="stroke:none;fill:#003366;"/>
</a>
<a xlink:href="g-0x60000f9cb600.svg">
<text x="157.650000" y="102.000000" font-family="Arial" font-size="7" text-anchor="middle" fill="#FFFFFF">g(1)(8)</text>
</a>
<circle cx="140.300000" cy="90.000000" r="1"/>
<rect x="194.000000" y="85.000000" width="24.000000" height="24.000000" rx="0" ry="0" style="stroke:none;fill:#cccccc;"/>
<rect x="193.000000" y="84.000000" width="24.000000" height="24.000000" rx="0" ry="0" style="stroke:none;fill:#4B71A1;"/>
<text x="205.000000" y="98.000000" font-family="Arial" font-size="7" text-anchor="middle" fill="#FFFFFF">*</text>
<circle cx="195.000000" cy="86.000000" r="1"/>
<line x1="190.000000" y1="91.000000" x2="193.000000" y2="92.000000"  transform="rotate(0.000000,193.000000,92.000000)" style="stroke: black; stroke-width:0.25;"/>
<line x1="190.000000" y1="93.000000" x2="193.000000" y2="92.000000"  transform="rotate(0.000000,193.000000,92.000000)" style="stroke: black; stroke-width:0.25;"/>
<line x1="190.000000" y1="99.000000" x2="193.000000" y2="100.000000"  transform="rotate(0.000000,193.000000,100.000000)" style="stroke: black; stroke-width:0.25;"/>
<line x1="190.000000" y1="101.000000" x2="193.000000" y2="100.000000"  transform="rotate(0.000000,193.000000,100.000000)" style="stroke: black; stroke-width:0.25;"/>
<rect x="284.000000" y="43.000000" width="24.000000" height="24.000000" rx="0" ry="0" style="stroke:none;fill:#cccccc;"/>
<rect x="283.000000" y="42.000000" width="24.000000" height="24.000000" rx="0" ry="0" style="stroke:none;fill:#f44800;"/>
<text x="295.000000" y="56.000000" font-family="Arial" font-size="7" text-anchor="middle" fill="#FFFFFF">1</text>
<circle cx="285.000000" cy="44.000000" r="1"/>
<line x1="274.000000" y1="33.000000" x2="274.000000" y2="75.000000"  style="stroke: black; stroke-linecap:round; stroke-width:0.25; stroke-dasharray:3,3;"/>
<line x1="274.000000" y1="75.000000" x2="316.000000" y2="75.000000"  style="stroke: black; stroke-linecap:round; stroke-width:0.25; stroke-dasharray:3,3;"/>
<line x1="316.000000" y1="75.000000" x2="316.000000" y2="33.000000"  style="stroke: black; stroke-linecap:round; stroke-width:0.25; stroke-dasharray:3,3;"/>
<line x1="274.000000" y1="33.000000" x2="279.000000" y2="33.000000"  style="stroke: black; stroke-linecap:round; stroke-width:0.25; stroke-dasharray:3,3;"/>
<line x1="316.000000" y1="33.000000" x2="316.000000" y2="33.000000"  style="stroke: black; stroke-linecap:round; stroke-width:0.25; stroke-dasharray:3,3;"/>
<text x="279.000000" y="35.000000" font-family="Arial" font-size="7">loopgainmax</text>
<rect x="334.000000" y="39.000000" width="24.000000" height="24.000000" rx="0" ry="0" style="stroke:none;fill:#cccccc;"/>
<rect x="333.000000" y="38.000000" width="24.000000" height="24.000000" rx="0" ry="0" style="stroke:none;fill:#4B71A1;"/>
<text x="345.000000" y="52.000000" font-family="Arial" font-size="7" text-anchor="middle" fill="#FFFFFF">*</text>
<circle cx="335.000000" cy="40.000000" r="1"/>
<line x1="330.000000" y1="45.000000" x2="333.000000" y2="46.000000"  transform="rotate(0.000000,333.000000,46.000000)" style="stroke: black; stroke-width:0.25;"/>
<line x1="330.000000" y1="47.000000" x2="333.000000" y2="46.000000"  transform="rotate(0.000000,333.000000,46.000000)" style="stroke: black; stroke-width:0.25;"/>
<line x1="330.000000" y1="53.000000" x2="333.000000" y2="54.000000"  transform="rotate(0.000000,333.000000,54.000000)" style="stroke: black; stroke-width:0.25;"/>
<line x1="330.000000" y1="55.000000" x2="333.000000" y2="54.000000"  transform="rotate(0.000000,333.000000,54.000000)" style="stroke: black; stroke-width:0.25;"/>
<rect x="287.100000" y="95.000000" width="24.000000" height="24.000000" rx="0" ry="0" style="stroke:none;fill:#cccccc;"/>
<rect x="286.100000" y="94.000000" width="24.000000" height="24.000000" rx="0" ry="0" style="stroke:none;fill:#f44800;"/>
<text x="298.100000" y="108.000000" font-family="Arial" font-size="7" text-anchor="middle" fill="#FFFFFF">16</text>
<circle cx="288.100000" cy="96.000000" r="1"/>
<line x1="277.100000" y1="85.000000" x2="277.100000" y2="127.000000"  style="stroke: black; stroke-linecap:round; stroke-width:0.25; stroke-dasharray:3,3;"/>
<line x1="277.100000" y1="127.000000" x2="319.100000" y2="127.000000"  style="stroke: black; stroke-linecap:round; stroke-width:0.25; stroke-dasharray:3,3;"/>
<line x1="319.100000" y1="127.000000" x2="319.100000" y2="85.000000"  style="stroke: black; stroke-linecap:round; stroke-width:0.25; stroke-dasharray:3,3;"/>
<line x1="277.100000" y1="85.000000" x2="282.100000" y2="85.000000"  style="stroke: black; stroke-linecap:round; stroke-width:0.25; stroke-dasharray:3,3;"/>
<line x1="291.775000" y1="85.000000" x2="319.100000" y2="85.000000"  style="stroke: black; stroke-linecap:round; stroke-width:0.25; stroke-dasharray:3,3;"/>
<text x="282.100000" y="87.000000" font-family="Arial" font-size="7">N</text>
<rect x="329.100000" y="95.000000" width="25.800000" height="24.000000" rx="0" ry="0" style="stroke:none;fill:#cccccc;"/>
<rect x="328.100000" y="94.000000" width="25.800000" height="24.000000" rx="0" ry="0" style="stroke:none;fill:#4B71A1;"/>
<text x="341.000000" y="108.000000" font-family="Arial" font-size="7" text-anchor="middle" fill="#FFFFFF">sqrt</text>
<circle cx="330.100000" cy="96.000000" r="1"/>
<line x1="325.100000" y1="105.000000" x2="328.100000" y2="106.000000"  transform="rotate(0.000000,328.100000,106.000000)" style="stroke: black; stroke-width:0.25;"/>
<line x1="325.100000" y1="107.000000" x2="328.100000" y2="106.000000"  transform="rotate(0.000000,328.100000,106.000000)" style="stroke: black; stroke-width:0.25;"/>
<rect x="374.000000" y="65.000000" width="24.000000" height="24.000000" rx="0" ry="0" style="stroke:none;fill:#cccccc;"/>
<rect x="373.000000" y="64.000000" width="24.000000" height="24.000000" rx="0" ry="0" style="stroke:none;fill:#4B71A1;"/>
<text x="385.000000" y="78.000000" font-family="Arial" font-size="7" text-anchor="middle" fill="#FFFFFF">/</text>
<circle cx="375.000000" cy="66.000000" r="1"/>
<line x1="370.000000" y1="71.000000" x2="373.000000" y2="72.000000"  transform="rotate(0.000000,373.000000,72.000000)" style="stroke: black; stroke-width:0.25;"/>
<line x1="370.000000" y1="73.000000" x2="373.000000" y2="72.000000"  transform="rotate(0.000000,373.000000,72.000000)" style="stroke: black; stroke-width:0.25;"/>
<line x1="370.000000" y1="79.000000" x2="373.000000" y2="80.000000"  transform="rotate(0.000000,373.000000,80.000000)" style="stroke: black; stroke-width:0.25;"/>
<line x1="370.000000" y1="81.000000" x2="373.000000" y2="80.000000"  transform="rotate(0.000000,373.000000,80.000000)" style="stroke: black; stroke-width:0.25;"/>
<line x1="15.000000" y1="15.000000" x2="15.000000" y2="137.000000"  style="stroke: black; stroke-linecap:round; stroke-width:0.25; stroke-dasharray:3,3;"/>
<line x1="15.000000" y1="137.000000" x2="414.000000" y2="137.000000"  style="stroke: black; stroke-linecap:round; stroke-width:0.25; stroke-dasharray:3,3;"/>
<line x1="414.000000" y1="137.000000" x2="414.000000" y2="15.000000"  style="stroke: black; stroke-linecap:round; stroke-width:0.25; stroke-dasharray:3,3;"/>
<line x1="15.000000" y1="15.000000" x2="20.000000" y2="15.000000"  style="stroke: black; stroke-linecap:round; stroke-width:0.25; stroke-dasharray:3,3;"/>
<line x1="110.300000" y1="15.000000" x2="414.000000" y2="15.000000"  style="stroke: black; stroke-linecap:round; stroke-width:0.25; stroke-dasharray:3,3;"/>
<text x="20.000000" y="17.000000" font-family="Arial" font-size="7">filter(8)(7000)(0.1f,3.4f)</text>
<line x1="416.000000" y1="75.000000" x2="419.000000" y2="76.000000"  transform="rotate(0.000000,419.000000,76.000000)" style="stroke: black; stroke-width:0.25;"/>
<line x1="416.000000" y1="77.000000" x2="419.000000" y2="76.000000"  transform="rotate(0.000000,419.000000,76.000000)" style="stroke: black; stroke-width:0.25;"/>
<line x1="10.000000" y1="76.000000" x2="20.000000" y2="76.000000"  style="stroke:black; stroke-linecap:round; stroke-width:0.25;"/>
<line x1="20.000000" y1="76.000000" x2="24.000000" y2="76.000000"  style="stroke:black; stroke-linecap:round; stroke-width:0.25;"/>
<line x1="24.000000" y1="76.000000" x2="28.000000" y2="76.000000"  style="stroke:black; stroke-linecap:round; stroke-width:0.25;"/>
<line x1="28.000000" y1="76.000000" x2="28.000000" y2="76.000000"  style="stroke:black; stroke-linecap:round; stroke-width:0.25;"/>
<line x1="28.000000" y1="76.000000" x2="32.000000" y2="76.000000"  style="stroke:black; stroke-linecap:round; stroke-width:0.25;"/>
<line x1="122.300000" y1="72.000000" x2="126.300000" y2="72.000000"  style="stroke:black; stroke-linecap:round; stroke-width:0.25;"/>
<line x1="122.300000" y1="80.000000" x2="126.300000" y2="80.000000"  style="stroke:black; stroke-linecap:round; stroke-width:0.25;"/>
<line x1="126.300000" y1="40.000000" x2="134.300000" y2="40.000000"  style="stroke:black; stroke-linecap:round; stroke-width:0.25;"/>
<line x1="126.300000" y1="72.000000" x2="126.300000" y2="40.000000"  style="stroke:black; stroke-linecap:round; stroke-width:0.25;"/>
<line x1="126.300000" y1="72.000000" x2="126.300000" y2="72.000000"  style="stroke:black; stroke-linecap:round; stroke-width:0.25;"/>
<line x1="126.300000" y1="80.000000" x2="134.300000" y2="80.000000"  style="stroke:black; stroke-linecap:round; stroke-width:0.25;"/>
<line x1="134.300000" y1="40.000000" x2="157.650000" y2="40.000000"  style="stroke:black; stroke-linecap:round; stroke-width:0.25;"/>
<line x1="134.300000" y1="80.000000" x2="157.650000" y2="80.000000"  style="stroke:black; stroke-linecap:round; stroke-width:0.25;"/>
<line x1="157.650000" y1="40.000000" x2="181.000000" y2="40.000000"  style="stroke:black; stroke-linecap:round; stroke-width:0.25;"/>
<line x1="157.650000" y1="80.000000" x2="181.000000" y2="80.000000"  style="stroke:black; stroke-linecap:round; stroke-width:0.25;"/>
<line x1="177.000000" y1="60.000000" x2="181.000000" y2="60.000000"  style="stroke:black; stroke-linecap:round; stroke-width:0.25;"/>
<line x1="177.000000" y1="100.000000" x2="181.000000" y2="100.000000"  style="stroke:black; stroke-linecap:round; stroke-width:0.25;"/>
<line x1="181.000000" y1="40.000000" x2="189.000000" y2="40.000000"  style="stroke:black; stroke-linecap:round; stroke-width:0.25;"/>
<line x1="181.000000" y1="60.000000" x2="189.000000" y2="60.000000"  style="stroke:black; stroke-linecap:round; stroke-width:0.25;"/>
<line x1="181.000000" y1="80.000000" x2="189.000000" y2="80.000000"  style="stroke:black; stroke-linecap:round; stroke-width:0.25;"/>
<line x1="181.000000" y1="100.000000" x2="189.000000" y2="100.000000"  style="stroke:black; stroke-linecap:round; stroke-width:0.25;"/>
<line x1="189.000000" y1="40.000000" x2="189.000000" y2="52.000000"  style="stroke:black; stroke-linecap:round; stroke-width:0.25;"/>
<line x1="189.000000" y1="52.000000" x2="189.000000" y2="52.000000"  style="stroke:black; stroke-linecap:round; stroke-width:0.25;"/>
<line x1="189.000000" y1="52.000000" x2="193.000000" y2="52.000000"  style="stroke:black; stroke-linecap:round; stroke-width:0.25;"/>
<line x1="189.000000" y1="60.000000" x2="193.000000" y2="60.000000"  style="stroke:black; stroke-linecap:round; stroke-width:0.25;"/>
<line x1="189.000000" y1="80.000000" x2="189.000000" y2="92.000000"  style="stroke:black; stroke-linecap:round; stroke-width:0.25;"/>
<line x1="189.000000" y1="92.000000" x2="189.000000" y2="92.000000"  style="stroke:black; stroke-linecap:round; stroke-width:0.25;"/>
<line x1="189.000000" y1="92.000000" x2="193.000000" y2="92.000000"  style="stroke:black; stroke-linecap:round; stroke-width:0.25;"/>
<line x1="189.000000" y1="100.000000" x2="193.000000" y2="100.000000"  style="stroke:black; stroke-linecap:round; stroke-width:0.25;"/>
<line x1="217.000000" y1="56.000000" x2="221.000000" y2="56.000000"  style="stroke:black; stroke-linecap:round; stroke-width:0.25;"/>
<line x1="217.000000" y1="96.000000" x2="221.000000" y2="96.000000"  style="stroke:black; stroke-linecap:round; stroke-width:0.25;"/>
<line x1="221.000000" y1="56.000000" x2="269.000000" y2="24.000000"  style="stroke:black; stroke-linecap:round; stroke-width:0.25;"/>
<line x1="221.000000" y1="96.000000" x2="269.000000" y2="24.000000"  style="stroke:black; stroke-linecap:round; stroke-width:0.25;"/>
<line x1="269.000000" y1="24.000000" x2="295.000000" y2="24.000000"  style="stroke:black; stroke-linecap:round; stroke-width:0.25;"/>
<line x1="295.000000" y1="24.000000" x2="321.000000" y2="24.000000"  style="stroke:black; stroke-linecap:round; stroke-width:0.25;"/>
<line x1="307.000000" y1="54.000000" x2="311.000000" y2="54.000000"  style="stroke:black; stroke-linecap:round; stroke-width:0.25;"/>
<line x1="310.100000" y1="106.000000" x2="314.100000" y2="106.000000"  style="stroke:black; stroke-linecap:round; stroke-width:0.25;"/>
<line x1="311.000000" y1="54.000000" x2="321.000000" y2="54.000000"  style="stroke:black; stroke-linecap:round; stroke-width:0.25;"/>
<line x1="314.100000" y1="106.000000" x2="324.100000" y2="106.000000"  style="stroke:black; stroke-linecap:round; stroke-width:0.25;"/>
<line x1="321.000000" y1="24.000000" x2="329.000000" y2="24.000000"  style="stroke:black; stroke-linecap:round; stroke-width:0.25;"/>
<line x1="321.000000" y1="54.000000" x2="329.000000" y2="54.000000"  style="stroke:black; stroke-linecap:round; stroke-width:0.25;"/>
<line x1="324.100000" y1="106.000000" x2="324.100000" y2="106.000000"  style="stroke:black; stroke-linecap:round; stroke-width:0.25;"/>
<line x1="324.100000" y1="106.000000" x2="328.100000" y2="106.000000"  style="stroke:black; stroke-linecap:round; stroke-width:0.25;"/>
<line x1="329.000000" y1="24.000000" x2="329.000000" y2="46.000000"  style="stroke:black; stroke-linecap:round; stroke-width:0.25;"/>
<line x1="329.000000" y1="46.000000" x2="329.000000" y2="46.000000"  style="stroke:black; stroke-linecap:round; stroke-width:0.25;"/>
<line x1="329.000000" y1="46.000000" x2="333.000000" y2="46.000000"  style="stroke:black; stroke-linecap:round; stroke-width:0.25;"/>
<line x1="329.000000" y1="54.000000" x2="333.000000" y2="54.000000"  style="stroke:black; stroke-linecap:round; stroke-width:0.25;"/>
<line x1="353.900000" y1="106.000000" x2="357.900000" y2="106.000000"  style="stroke:black; stroke-linecap:round; stroke-width:0.25;"/>
<line x1="357.000000" y1="50.000000" x2="361.000000" y2="50.000000"  style="stroke:black; stroke-linecap:round; stroke-width:0.25;"/>
<line x1="357.900000" y1="106.000000" x2="361.000000" y2="106.000000"  style="stroke:black; stroke-linecap:round; stroke-width:0.25;"/>
<line x1="361.000000" y1="50.000000" x2="369.000000" y2="50.000000"  style="stroke:black; stroke-linecap:round; stroke-width:0.25;"/>
<line x1="361.000000" y1="80.000000" x2="369.000000" y2="80.000000"  style="stroke:black; stroke-linecap:round; stroke-width:0.25;"/>
<line x1="361.000000" y1="106.000000" x2="361.000000" y2="80.000000"  style="stroke:black; stroke-linecap:round; stroke-width:0.25;"/>
<line x1="361.000000" y1="106.000000" x2="361.000000" y2="106.000000"  style="stroke:black; stroke-linecap:round; stroke-width:0.25;"/>
<line x1="369.000000" y1="50.000000" x2="369.000000" y2="72.000000"  style="stroke:black; stroke-linecap:round; stroke-width:0.25;"/>
<line x1="369.000000" y1="72.000000" x2="369.000000" y2="72.000000"  style="stroke:black; stroke-linecap:round; stroke-width:0.25;"/>
<line x1="369.000000" y1="72.000000" x2="373.000000" y2="72.000000"  style="stroke:black; stroke-linecap:round; stroke-width:0.25;"/>
<line x1="369.000000" y1="80.000000" x2="373.000000" y2="80.000000"  style="stroke:black; stroke-linecap:round; stroke-width:0.25;"/>
<line x1="397.000000" y1="76.000000" x2="401.000000" y2="76.000000"  style="stroke:black; stroke-linecap:round; stroke-width:0.25;"/>
<line x1="401.000000" y1="76.000000" x2="401.000000" y2="76.000000"  style="stroke:black; stroke-linecap:round; stroke-width:0.25;"/>
<line x1="401.000000" y1="76.000000" x2="405.000000" y2="76.000000"  style="stroke:black; stroke-linecap:round; stroke-width:0.25;"/>
<line x1="405.000000" y1="76.000000" x2="409.000000" y2="76.000000"  style="stroke:black; stroke-linecap:round; stroke-width:0.25;"/>
<line x1="409.000000" y1="76.000000" x2="419.000000" y2="76.000000"  style="stroke:black; stroke-linecap:round; stroke-width:0.25;"/>
</svg>
