<?xml version="1.0"?>
<svg xmlns="http://www.w3.org/2000/svg" xmlns:xlink="http://www.w3.org/1999/xlink" viewBox="0 0 451.000000 248.160000" width="225.500000mm" height="124.080000mm" version="1.1">
<a xlink:href="oscr-0x600017c98ab0.svg">
<rect x="1.000000" y="1.000000" width="450.000000" height="247.160000" rx="0" ry="0" style="stroke:none;fill:#cccccc;"/>
<rect x="0.000000" y="0.000000" width="450.000000" height="247.160000" rx="0" ry="0" style="stroke:none;fill:#ffffff;"/>
</a>
<text x="10.000000" y="7.000000" font-family="Arial" font-size="7"></text>
<rect x="33.000000" y="113.080000" width="24.000000" height="24.000000" rx="0" ry="0" style="stroke:none;fill:#cccccc;"/>
<rect x="32.000000" y="112.080000" width="24.000000" height="24.000000" rx="0" ry="0" style="stroke:none;fill:#47945E;"/>
<text x="44.000000" y="126.080000" font-family="Arial" font-size="7" text-anchor="middle" fill="#FFFFFF">x</text>
<circle cx="34.000000" cy="114.080000" r="1"/>
<line x1="29.000000" y1="123.080000" x2="32.000000" y2="124.080000"  transform="rotate(0.000000,32.000000,124.080000)" style="stroke: black; stroke-width:0.25;"/>
<line x1="29.000000" y1="125.080000" x2="32.000000" y2="124.080000"  transform="rotate(0.000000,32.000000,124.080000)" style="stroke: black; stroke-width:0.25;"/>
<a xlink:href="s-0x600007c6e9a0.svg">
<rect x="147.000000" y="49.160000" width="24.000000" height="24.000000" rx="0" ry="0" style="stroke:none;fill:#cccccc;"/>
<rect x="146.000000" y="48.160000" width="24.000000" height="24.000000" rx="0" ry="0" style="stroke:none;fill:#003366;"/>
</a>
<a xlink:href="s-0x600007c6e9a0.svg">
<text x="158.000000" y="62.160000" font-family="Arial" font-size="7" text-anchor="middle" fill="#FFFFFF">s</text>
</a>
<circle cx="148.000000" cy="50.160000" r="1"/>
<rect x="187.000000" y="45.160000" width="24.000000" height="24.000000" rx="0" ry="0" style="stroke:none;fill:#cccccc;"/>
<rect x="186.000000" y="44.160000" width="24.000000" height="24.000000" rx="0" ry="0" style="stroke:none;fill:#4B71A1;"/>
<text x="198.000000" y="58.160000" font-family="Arial" font-size="7" text-anchor="middle" fill="#FFFFFF">*</text>
<circle cx="188.000000" cy="46.160000" r="1"/>
<line x1="183.000000" y1="51.160000" x2="186.000000" y2="52.160000"  transform="rotate(0.000000,186.000000,52.160000)" style="stroke: black; stroke-width:0.25;"/>
<line x1="183.000000" y1="53.160000" x2="186.000000" y2="52.160000"  transform="rotate(0.000000,186.000000,52.160000)" style="stroke: black; stroke-width:0.25;"/>
<line x1="183.000000" y1="59.160000" x2="186.000000" y2="60.160000"  transform="rotate(0.000000,186.000000,60.160000)" style="stroke: black; stroke-width:0.25;"/>
<line x1="183.000000" y1="61.160000" x2="186.000000" y2="60.160000"  transform="rotate(0.000000,186.000000,60.160000)" style="stroke: black; stroke-width:0.25;"/>
<a xlink:href="c-0x600007c6f330.svg">
<rect x="147.000000" y="89.160000" width="24.000000" height="24.000000" rx="0" ry="0" style="stroke:none;fill:#cccccc;"/>
<rect x="146.000000" y="88.160000" width="24.000000" height="24.000000" rx="0" ry="0" style="stroke:none;fill:#003366;"/>
</a>
<a xlink:href="c-0x600007c6f330.svg">
<text x="158.000000" y="102.160000" font-family="Arial" font-size="7" text-anchor="middle" fill="#FFFFFF">c</text>
</a>
<circle cx="148.000000" cy="90.160000" r="1"/>
<rect x="187.000000" y="85.160000" width="24.000000" height="24.000000" rx="0" ry="0" style="stroke:none;fill:#cccccc;"/>
<rect x="186.000000" y="84.160000" width="24.000000" height="24.000000" rx="0" ry="0" style="stroke:none;fill:#4B71A1;"/>
<text x="198.000000" y="98.160000" font-family="Arial" font-size="7" text-anchor="middle" fill="#FFFFFF">*</text>
<circle cx="188.000000" cy="86.160000" r="1"/>
<line x1="183.000000" y1="91.160000" x2="186.000000" y2="92.160000"  transform="rotate(0.000000,186.000000,92.160000)" style="stroke: black; stroke-width:0.25;"/>
<line x1="183.000000" y1="93.160000" x2="186.000000" y2="92.160000"  transform="rotate(0.000000,186.000000,92.160000)" style="stroke: black; stroke-width:0.25;"/>
<line x1="183.000000" y1="99.160000" x2="186.000000" y2="100.160000"  transform="rotate(0.000000,186.000000,100.160000)" style="stroke: black; stroke-width:0.25;"/>
<line x1="183.000000" y1="101.160000" x2="186.000000" y2="100.160000"  transform="rotate(0.000000,186.000000,100.160000)" style="stroke: black; stroke-width:0.25;"/>
<a xlink:href="c-0x600007c6f330.svg">
<rect x="147.000000" y="129.160000" width="24.000000" height="24.000000" rx="0" ry="0" style="stroke:none;fill:#cccccc;"/>
<rect x="146.000000" y="128.160000" width="24.000000" height="24.000000" rx="0" ry="0" style="stroke:none;fill:#003366;"/>
</a>
<a xlink:href="c-0x600007c6f330.svg">
<text x="158.000000" y="142.160000" font-family="Arial" font-size="7" text-anchor="middle" fill="#FFFFFF">c</text>
</a>
<circle cx="148.000000" cy="130.160000" r="1"/>
<rect x="187.000000" y="125.160000" width="24.000000" height="24.000000" rx="0" ry="0" style="stroke:none;fill:#cccccc;"/>
<rect x="186.000000" y="124.160000" width="24.000000" height="24.000000" rx="0" ry="0" style="stroke:none;fill:#4B71A1;"/>
<text x="198.000000" y="138.160000" font-family="Arial" font-size="7" text-anchor="middle" fill="#FFFFFF">*</text>
<circle cx="188.000000" cy="126.160000" r="1"/>
<line x1="183.000000" y1="131.160000" x2="186.000000" y2="132.160000"  transform="rotate(0.000000,186.000000,132.160000)" style="stroke: black; stroke-width:0.25;"/>
<line x1="183.000000" y1="133.160000" x2="186.000000" y2="132.160000"  transform="rotate(0.000000,186.000000,132.160000)" style="stroke: black; stroke-width:0.25;"/>
<line x1="183.000000" y1="139.160000" x2="186.000000" y2="140.160000"  transform="rotate(0.000000,186.000000,140.160000)" style="stroke: black; stroke-width:0.25;"/>
<line x1="183.000000" y1="141.160000" x2="186.000000" y2="140.160000"  transform="rotate(0.000000,186.000000,140.160000)" style="stroke: black; stroke-width:0.25;"/>
<rect x="127.000000" y="169.160000" width="24.000000" height="24.000000" rx="0" ry="0" style="stroke:none;fill:#cccccc;"/>
<rect x="126.000000" y="168.160000" width="24.000000" height="24.000000" rx="0" ry="0" style="stroke:none;fill:#f44800;"/>
<text x="138.000000" y="182.160000" font-family="Arial" font-size="7" text-anchor="middle" fill="#FFFFFF">0</text>
<circle cx="128.000000" cy="170.160000" r="1"/>
<a xlink:href="s-0x600007c6e9a0.svg">
<rect x="127.000000" y="201.160000" width="24.000000" height="24.000000" rx="0" ry="0" style="stroke:none;fill:#cccccc;"/>
<rect x="126.000000" y="200.160000" width="24.000000" height="24.000000" rx="0" ry="0" style="stroke:none;fill:#003366;"/>
</a>
<a xlink:href="s-0x600007c6e9a0.svg">
<text x="138.000000" y="214.160000" font-family="Arial" font-size="7" text-anchor="middle" fill="#FFFFFF">s</text>
</a>
<circle cx="128.000000" cy="202.160000" r="1"/>
<rect x="167.000000" y="185.160000" width="24.000000" height="24.000000" rx="0" ry="0" style="stroke:none;fill:#cccccc;"/>
<rect x="166.000000" y="184.160000" width="24.000000" height="24.000000" rx="0" ry="0" style="stroke:none;fill:#4B71A1;"/>
<text x="178.000000" y="198.160000" font-family="Arial" font-size="7" text-anchor="middle" fill="#FFFFFF">-</text>
<circle cx="168.000000" cy="186.160000" r="1"/>
<line x1="163.000000" y1="191.160000" x2="166.000000" y2="192.160000"  transform="rotate(0.000000,166.000000,192.160000)" style="stroke: black; stroke-width:0.25;"/>
<line x1="163.000000" y1="193.160000" x2="166.000000" y2="192.160000"  transform="rotate(0.000000,166.000000,192.160000)" style="stroke: black; stroke-width:0.25;"/>
<line x1="163.000000" y1="199.160000" x2="166.000000" y2="200.160000"  transform="rotate(0.000000,166.000000,200.160000)" style="stroke: black; stroke-width:0.25;"/>
<line x1="163.000000" y1="201.160000" x2="166.000000" y2="200.160000"  transform="rotate(0.000000,166.000000,200.160000)" style="stroke: black; stroke-width:0.25;"/>
<rect x="207.000000" y="181.160000" width="24.000000" height="24.000000" rx="0" ry="0" style="stroke:none;fill:#cccccc;"/>
<rect x="206.000000" y="180.160000" width="24.000000" height="24.000000" rx="0" ry="0" style="stroke:none;fill:#4B71A1;"/>
<text x="218.000000" y="194.160000" font-family="Arial" font-size="7" text-anchor="middle" fill="#FFFFFF">*</text>
<circle cx="208.000000" cy="182.160000" r="1"/>
<line x1="203.000000" y1="187.160000" x2="206.000000" y2="188.160000"  transform="rotate(0.000000,206.000000,188.160000)" style="stroke: black; stroke-width:0.25;"/>
<line x1="203.000000" y1="189.160000" x2="206.000000" y2="188.160000"  transform="rotate(0.000000,206.000000,188.160000)" style="stroke: black; stroke-width:0.25;"/>
<line x1="203.000000" y1="195.160000" x2="206.000000" y2="196.160000"  transform="rotate(0.000000,206.000000,196.160000)" style="stroke: black; stroke-width:0.25;"/>
<line x1="203.000000" y1="197.160000" x2="206.000000" y2="196.160000"  transform="rotate(0.000000,206.000000,196.160000)" style="stroke: black; stroke-width:0.25;"/>
<rect x="322.000000" y="105.160000" width="24.000000" height="24.000000" rx="0" ry="0" style="stroke:none;fill:#cccccc;"/>
<rect x="321.000000" y="104.160000" width="24.000000" height="24.000000" rx="0" ry="0" style="stroke:none;fill:#f44800;"/>
<text x="333.000000" y="118.160000" font-family="Arial" font-size="7" text-anchor="middle" fill="#FFFFFF">1</text>
<circle cx="323.000000" cy="106.160000" r="1"/>
<line x1="312.000000" y1="95.160000" x2="312.000000" y2="137.160000"  style="stroke: black; stroke-linecap:round; stroke-width:0.25; stroke-dasharray:3,3;"/>
<line x1="312.000000" y1="137.160000" x2="354.000000" y2="137.160000"  style="stroke: black; stroke-linecap:round; stroke-width:0.25; stroke-dasharray:3,3;"/>
<line x1="354.000000" y1="137.160000" x2="354.000000" y2="95.160000"  style="stroke: black; stroke-linecap:round; stroke-width:0.25; stroke-dasharray:3,3;"/>
<line x1="312.000000" y1="95.160000" x2="317.000000" y2="95.160000"  style="stroke: black; stroke-linecap:round; stroke-width:0.25; stroke-dasharray:3,3;"/>
<line x1="329.900000" y1="95.160000" x2="354.000000" y2="95.160000"  style="stroke: black; stroke-linecap:round; stroke-width:0.25; stroke-dasharray:3,3;"/>
<text x="317.000000" y="97.160000" font-family="Arial" font-size="7">nb</text>
<rect x="372.000000" y="101.160000" width="24.000000" height="24.000000" rx="0" ry="0" style="stroke:none;fill:#cccccc;"/>
<rect x="371.000000" y="100.160000" width="24.000000" height="24.000000" rx="0" ry="0" style="stroke:none;fill:#4B71A1;"/>
<text x="383.000000" y="114.160000" font-family="Arial" font-size="7" text-anchor="middle" fill="#FFFFFF">*</text>
<circle cx="373.000000" cy="102.160000" r="1"/>
<line x1="368.000000" y1="107.160000" x2="371.000000" y2="108.160000"  transform="rotate(0.000000,371.000000,108.160000)" style="stroke: black; stroke-width:0.25;"/>
<line x1="368.000000" y1="109.160000" x2="371.000000" y2="108.160000"  transform="rotate(0.000000,371.000000,108.160000)" style="stroke: black; stroke-width:0.25;"/>
<line x1="368.000000" y1="115.160000" x2="371.000000" y2="116.160000"  transform="rotate(0.000000,371.000000,116.160000)" style="stroke: black; stroke-width:0.25;"/>
<line x1="368.000000" y1="117.160000" x2="371.000000" y2="116.160000"  transform="rotate(0.000000,371.000000,116.160000)" style="stroke: black; stroke-width:0.25;"/>
<rect x="322.000000" y="155.160000" width="24.000000" height="24.000000" rx="0" ry="0" style="stroke:none;fill:#cccccc;"/>
<rect x="321.000000" y="154.160000" width="24.000000" height="24.000000" rx="0" ry="0" style="stroke:none;fill:#47945E;"/>
<text x="333.000000" y="168.160000" font-family="Arial" font-size="7" text-anchor="middle" fill="#FFFFFF">x</text>
<circle cx="323.000000" cy="156.160000" r="1"/>
<rect x="362.000000" y="151.160000" width="24.000000" height="24.000000" rx="0" ry="0" style="stroke:none;fill:#cccccc;"/>
<rect x="361.000000" y="150.160000" width="24.000000" height="24.000000" rx="0" ry="0" style="stroke:none;fill:#4B71A1;"/>
<text x="373.000000" y="164.160000" font-family="Arial" font-size="7" text-anchor="middle" fill="#FFFFFF">+</text>
<circle cx="363.000000" cy="152.160000" r="1"/>
<line x1="358.000000" y1="157.160000" x2="361.000000" y2="158.160000"  transform="rotate(0.000000,361.000000,158.160000)" style="stroke: black; stroke-width:0.25;"/>
<line x1="358.000000" y1="159.160000" x2="361.000000" y2="158.160000"  transform="rotate(0.000000,361.000000,158.160000)" style="stroke: black; stroke-width:0.25;"/>
<line x1="358.000000" y1="165.160000" x2="361.000000" y2="166.160000"  transform="rotate(0.000000,361.000000,166.160000)" style="stroke: black; stroke-width:0.25;"/>
<line x1="358.000000" y1="167.160000" x2="361.000000" y2="166.160000"  transform="rotate(0.000000,361.000000,166.160000)" style="stroke: black; stroke-width:0.25;"/>
<line x1="397.000000" y1="112.160000" x2="397.000000" y2="108.160000"  style="stroke:black; stroke-linecap:round; stroke-width:0.25;"/>
<line x1="397.000000" y1="108.160000" x2="401.000000" y2="108.160000"  style="stroke:black; stroke-linecap:round; stroke-width:0.25;"/>
<line x1="401.000000" y1="108.160000" x2="401.000000" y2="112.160000"  style="stroke:black; stroke-linecap:round; stroke-width:0.25;"/>
<line x1="405.000000" y1="162.160000" x2="405.000000" y2="158.160000"  style="stroke:black; stroke-linecap:round; stroke-width:0.25;"/>
<line x1="405.000000" y1="158.160000" x2="409.000000" y2="158.160000"  style="stroke:black; stroke-linecap:round; stroke-width:0.25;"/>
<line x1="409.000000" y1="158.160000" x2="409.000000" y2="162.160000"  style="stroke:black; stroke-linecap:round; stroke-width:0.25;"/>
<line x1="15.000000" y1="15.000000" x2="15.000000" y2="233.160000"  style="stroke: black; stroke-linecap:round; stroke-width:0.25; stroke-dasharray:3,3;"/>
<line x1="15.000000" y1="233.160000" x2="436.000000" y2="233.160000"  style="stroke: black; stroke-linecap:round; stroke-width:0.25; stroke-dasharray:3,3;"/>
<line x1="436.000000" y1="233.160000" x2="436.000000" y2="15.000000"  style="stroke: black; stroke-linecap:round; stroke-width:0.25; stroke-dasharray:3,3;"/>
<line x1="15.000000" y1="15.000000" x2="20.000000" y2="15.000000"  style="stroke: black; stroke-linecap:round; stroke-width:0.25; stroke-dasharray:3,3;"/>
<line x1="129.650000" y1="15.000000" x2="436.000000" y2="15.000000"  style="stroke: black; stroke-linecap:round; stroke-width:0.25; stroke-dasharray:3,3;"/>
<text x="20.000000" y="17.000000" font-family="Arial" font-size="7">nlf2(hslider(...e+01f, 0.1f))(1)</text>
<line x1="438.000000" y1="119.080000" x2="441.000000" y2="120.080000"  transform="rotate(0.000000,441.000000,120.080000)" style="stroke: black; stroke-width:0.25;"/>
<line x1="438.000000" y1="121.080000" x2="441.000000" y2="120.080000"  transform="rotate(0.000000,441.000000,120.080000)" style="stroke: black; stroke-width:0.25;"/>
<line x1="438.000000" y1="127.080000" x2="441.000000" y2="128.080000"  transform="rotate(0.000000,441.000000,128.080000)" style="stroke: black; stroke-width:0.25;"/>
<line x1="438.000000" y1="129.080000" x2="441.000000" y2="128.080000"  transform="rotate(0.000000,441.000000,128.080000)" style="stroke: black; stroke-width:0.25;"/>
<line x1="10.000000" y1="124.080000" x2="20.000000" y2="124.080000"  style="stroke:black; stroke-linecap:round; stroke-width:0.25;"/>
<line x1="20.000000" y1="124.080000" x2="24.000000" y2="124.080000"  style="stroke:black; stroke-linecap:round; stroke-width:0.25;"/>
<line x1="24.000000" y1="124.080000" x2="28.000000" y2="124.080000"  style="stroke:black; stroke-linecap:round; stroke-width:0.25;"/>
<line x1="28.000000" y1="124.080000" x2="28.000000" y2="124.080000"  style="stroke:black; stroke-linecap:round; stroke-width:0.25;"/>
<line x1="28.000000" y1="124.080000" x2="32.000000" y2="124.080000"  style="stroke:black; stroke-linecap:round; stroke-width:0.25;"/>
<line x1="68.000000" y1="24.080000" x2="68.000000" y2="140.160000"  style="stroke:black; stroke-linecap:round; stroke-width:0.25;"/>
<line x1="68.000000" y1="140.160000" x2="76.000000" y2="140.160000"  style="stroke:black; stroke-linecap:round; stroke-width:0.25;"/>
<line x1="76.000000" y1="24.080000" x2="68.000000" y2="24.080000"  style="stroke:black; stroke-linecap:round; stroke-width:0.25;"/>
<line x1="76.000000" y1="32.080000" x2="76.000000" y2="32.080000"  style="stroke:black; stroke-linecap:round; stroke-width:0.25;"/>
<line x1="76.000000" y1="32.080000" x2="76.000000" y2="124.160000"  style="stroke:black; stroke-linecap:round; stroke-width:0.25;"/>
<line x1="76.000000" y1="124.160000" x2="76.000000" y2="124.160000"  style="stroke:black; stroke-linecap:round; stroke-width:0.25;"/>
<line x1="76.000000" y1="124.160000" x2="80.000000" y2="124.160000"  style="stroke:black; stroke-linecap:round; stroke-width:0.25;"/>
<line x1="76.000000" y1="140.160000" x2="80.000000" y2="140.160000"  style="stroke:black; stroke-linecap:round; stroke-width:0.25;"/>
<line x1="80.000000" y1="124.160000" x2="84.000000" y2="124.160000"  style="stroke:black; stroke-linecap:round; stroke-width:0.25;"/>
<line x1="80.000000" y1="140.160000" x2="84.000000" y2="140.160000"  style="stroke:black; stroke-linecap:round; stroke-width:0.25;"/>
<line x1="84.000000" y1="124.160000" x2="90.000000" y2="120.160000"  style="stroke:black; stroke-linecap:round; stroke-width:0.25;"/>
<line x1="84.000000" y1="124.160000" x2="90.000000" y2="128.160000"  style="stroke:black; stroke-linecap:round; stroke-width:0.25;"/>
<line x1="84.000000" y1="140.160000" x2="90.000000" y2="136.160000"  style="stroke:black; stroke-linecap:round; stroke-width:0.25;"/>
<line x1="84.000000" y1="140.160000" x2="90.000000" y2="144.160000"  style="stroke:black; stroke-linecap:round; stroke-width:0.25;"/>
<line x1="90.000000" y1="120.160000" x2="94.000000" y2="120.160000"  style="stroke:black; stroke-linecap:round; stroke-width:0.25;"/>
<line x1="90.000000" y1="128.160000" x2="94.000000" y2="128.160000"  style="stroke:black; stroke-linecap:round; stroke-width:0.25;"/>
<line x1="90.000000" y1="136.160000" x2="94.000000" y2="136.160000"  style="stroke:black; stroke-linecap:round; stroke-width:0.25;"/>
<line x1="90.000000" y1="144.160000" x2="94.000000" y2="144.160000"  style="stroke:black; stroke-linecap:round; stroke-width:0.25;"/>
<line x1="94.000000" y1="120.160000" x2="98.000000" y2="120.160000"  style="stroke:black; stroke-linecap:round; stroke-width:0.25;"/>
<line x1="94.000000" y1="128.160000" x2="98.000000" y2="128.160000"  style="stroke:black; stroke-linecap:round; stroke-width:0.25;"/>
<line x1="94.000000" y1="136.160000" x2="98.000000" y2="136.160000"  style="stroke:black; stroke-linecap:round; stroke-width:0.25;"/>
<line x1="94.000000" y1="144.160000" x2="98.000000" y2="144.160000"  style="stroke:black; stroke-linecap:round; stroke-width:0.25;"/>
<line x1="98.000000" y1="40.160000" x2="122.000000" y2="40.160000"  style="stroke:black; stroke-linecap:round; stroke-width:0.25;"/>
<line x1="98.000000" y1="120.160000" x2="98.000000" y2="40.160000"  style="stroke:black; stroke-linecap:round; stroke-width:0.25;"/>
<line x1="98.000000" y1="120.160000" x2="98.000000" y2="120.160000"  style="stroke:black; stroke-linecap:round; stroke-width:0.25;"/>
<line x1="98.000000" y1="128.160000" x2="106.000000" y2="128.160000"  style="stroke:black; stroke-linecap:round; stroke-width:0.25;"/>
<line x1="98.000000" y1="136.160000" x2="114.000000" y2="136.160000"  style="stroke:black; stroke-linecap:round; stroke-width:0.25;"/>
<line x1="98.000000" y1="144.160000" x2="122.000000" y2="144.160000"  style="stroke:black; stroke-linecap:round; stroke-width:0.25;"/>
<line x1="106.000000" y1="80.160000" x2="122.000000" y2="80.160000"  style="stroke:black; stroke-linecap:round; stroke-width:0.25;"/>
<line x1="106.000000" y1="128.160000" x2="106.000000" y2="80.160000"  style="stroke:black; stroke-linecap:round; stroke-width:0.25;"/>
<line x1="114.000000" y1="120.160000" x2="122.000000" y2="120.160000"  style="stroke:black; stroke-linecap:round; stroke-width:0.25;"/>
<line x1="114.000000" y1="136.160000" x2="114.000000" y2="120.160000"  style="stroke:black; stroke-linecap:round; stroke-width:0.25;"/>
<line x1="122.000000" y1="40.160000" x2="142.000000" y2="40.160000"  style="stroke:black; stroke-linecap:round; stroke-width:0.25;"/>
<line x1="122.000000" y1="80.160000" x2="142.000000" y2="80.160000"  style="stroke:black; stroke-linecap:round; stroke-width:0.25;"/>
<line x1="122.000000" y1="120.160000" x2="142.000000" y2="120.160000"  style="stroke:black; stroke-linecap:round; stroke-width:0.25;"/>
<line x1="122.000000" y1="144.160000" x2="122.000000" y2="160.160000"  style="stroke:black; stroke-linecap:round; stroke-width:0.25;"/>
<line x1="122.000000" y1="160.160000" x2="122.000000" y2="160.160000"  style="stroke:black; stroke-linecap:round; stroke-width:0.25;"/>
<line x1="122.000000" y1="160.160000" x2="158.000000" y2="160.160000"  style="stroke:black; stroke-linecap:round; stroke-width:0.25;"/>
<line x1="142.000000" y1="40.160000" x2="158.000000" y2="40.160000"  style="stroke:black; stroke-linecap:round; stroke-width:0.25;"/>
<line x1="142.000000" y1="80.160000" x2="158.000000" y2="80.160000"  style="stroke:black; stroke-linecap:round; stroke-width:0.25;"/>
<line x1="142.000000" y1="120.160000" x2="158.000000" y2="120.160000"  style="stroke:black; stroke-linecap:round; stroke-width:0.25;"/>
<line x1="150.000000" y1="180.160000" x2="154.000000" y2="180.160000"  style="stroke:black; stroke-linecap:round; stroke-width:0.25;"/>
<line x1="150.000000" y1="212.160000" x2="154.000000" y2="212.160000"  style="stroke:black; stroke-linecap:round; stroke-width:0.25;"/>
<line x1="154.000000" y1="180.160000" x2="162.000000" y2="180.160000"  style="stroke:black; stroke-linecap:round; stroke-width:0.25;"/>
<line x1="154.000000" y1="200.160000" x2="162.000000" y2="200.160000"  style="stroke:black; stroke-linecap:round; stroke-width:0.25;"/>
<line x1="154.000000" y1="212.160000" x2="154.000000" y2="200.160000"  style="stroke:black; stroke-linecap:round; stroke-width:0.25;"/>
<line x1="154.000000" y1="212.160000" x2="154.000000" y2="212.160000"  style="stroke:black; stroke-linecap:round; stroke-width:0.25;"/>
<line x1="158.000000" y1="40.160000" x2="174.000000" y2="40.160000"  style="stroke:black; stroke-linecap:round; stroke-width:0.25;"/>
<line x1="158.000000" y1="80.160000" x2="174.000000" y2="80.160000"  style="stroke:black; stroke-linecap:round; stroke-width:0.25;"/>
<line x1="158.000000" y1="120.160000" x2="174.000000" y2="120.160000"  style="stroke:black; stroke-linecap:round; stroke-width:0.25;"/>
<line x1="158.000000" y1="160.160000" x2="194.000000" y2="160.160000"  style="stroke:black; stroke-linecap:round; stroke-width:0.25;"/>
<line x1="162.000000" y1="180.160000" x2="162.000000" y2="192.160000"  style="stroke:black; stroke-linecap:round; stroke-width:0.25;"/>
<line x1="162.000000" y1="192.160000" x2="162.000000" y2="192.160000"  style="stroke:black; stroke-linecap:round; stroke-width:0.25;"/>
<line x1="162.000000" y1="192.160000" x2="166.000000" y2="192.160000"  style="stroke:black; stroke-linecap:round; stroke-width:0.25;"/>
<line x1="162.000000" y1="200.160000" x2="166.000000" y2="200.160000"  style="stroke:black; stroke-linecap:round; stroke-width:0.25;"/>
<line x1="170.000000" y1="60.160000" x2="174.000000" y2="60.160000"  style="stroke:black; stroke-linecap:round; stroke-width:0.25;"/>
<line x1="170.000000" y1="100.160000" x2="174.000000" y2="100.160000"  style="stroke:black; stroke-linecap:round; stroke-width:0.25;"/>
<line x1="170.000000" y1="140.160000" x2="174.000000" y2="140.160000"  style="stroke:black; stroke-linecap:round; stroke-width:0.25;"/>
<line x1="174.000000" y1="40.160000" x2="182.000000" y2="40.160000"  style="stroke:black; stroke-linecap:round; stroke-width:0.25;"/>
<line x1="174.000000" y1="60.160000" x2="182.000000" y2="60.160000"  style="stroke:black; stroke-linecap:round; stroke-width:0.25;"/>
<line x1="174.000000" y1="80.160000" x2="182.000000" y2="80.160000"  style="stroke:black; stroke-linecap:round; stroke-width:0.25;"/>
<line x1="174.000000" y1="100.160000" x2="182.000000" y2="100.160000"  style="stroke:black; stroke-linecap:round; stroke-width:0.25;"/>
<line x1="174.000000" y1="120.160000" x2="182.000000" y2="120.160000"  style="stroke:black; stroke-linecap:round; stroke-width:0.25;"/>
<line x1="174.000000" y1="140.160000" x2="182.000000" y2="140.160000"  style="stroke:black; stroke-linecap:round; stroke-width:0.25;"/>
<line x1="182.000000" y1="40.160000" x2="182.000000" y2="52.160000"  style="stroke:black; stroke-linecap:round; stroke-width:0.25;"/>
<line x1="182.000000" y1="52.160000" x2="182.000000" y2="52.160000"  style="stroke:black; stroke-linecap:round; stroke-width:0.25;"/>
<line x1="182.000000" y1="52.160000" x2="186.000000" y2="52.160000"  style="stroke:black; stroke-linecap:round; stroke-width:0.25;"/>
<line x1="182.000000" y1="60.160000" x2="186.000000" y2="60.160000"  style="stroke:black; stroke-linecap:round; stroke-width:0.25;"/>
<line x1="182.000000" y1="80.160000" x2="182.000000" y2="92.160000"  style="stroke:black; stroke-linecap:round; stroke-width:0.25;"/>
<line x1="182.000000" y1="92.160000" x2="182.000000" y2="92.160000"  style="stroke:black; stroke-linecap:round; stroke-width:0.25;"/>
<line x1="182.000000" y1="92.160000" x2="186.000000" y2="92.160000"  style="stroke:black; stroke-linecap:round; stroke-width:0.25;"/>
<line x1="182.000000" y1="100.160000" x2="186.000000" y2="100.160000"  style="stroke:black; stroke-linecap:round; stroke-width:0.25;"/>
<line x1="182.000000" y1="120.160000" x2="182.000000" y2="132.160000"  style="stroke:black; stroke-linecap:round; stroke-width:0.25;"/>
<line x1="182.000000" y1="132.160000" x2="182.000000" y2="132.160000"  style="stroke:black; stroke-linecap:round; stroke-width:0.25;"/>
<line x1="182.000000" y1="132.160000" x2="186.000000" y2="132.160000"  style="stroke:black; stroke-linecap:round; stroke-width:0.25;"/>
<line x1="182.000000" y1="140.160000" x2="186.000000" y2="140.160000"  style="stroke:black; stroke-linecap:round; stroke-width:0.25;"/>
<line x1="190.000000" y1="196.160000" x2="194.000000" y2="196.160000"  style="stroke:black; stroke-linecap:round; stroke-width:0.25;"/>
<line x1="194.000000" y1="160.160000" x2="202.000000" y2="160.160000"  style="stroke:black; stroke-linecap:round; stroke-width:0.25;"/>
<line x1="194.000000" y1="196.160000" x2="202.000000" y2="196.160000"  style="stroke:black; stroke-linecap:round; stroke-width:0.25;"/>
<line x1="202.000000" y1="160.160000" x2="202.000000" y2="188.160000"  style="stroke:black; stroke-linecap:round; stroke-width:0.25;"/>
<line x1="202.000000" y1="188.160000" x2="202.000000" y2="188.160000"  style="stroke:black; stroke-linecap:round; stroke-width:0.25;"/>
<line x1="202.000000" y1="188.160000" x2="206.000000" y2="188.160000"  style="stroke:black; stroke-linecap:round; stroke-width:0.25;"/>
<line x1="202.000000" y1="196.160000" x2="206.000000" y2="196.160000"  style="stroke:black; stroke-linecap:round; stroke-width:0.25;"/>
<line x1="210.000000" y1="56.160000" x2="214.000000" y2="56.160000"  style="stroke:black; stroke-linecap:round; stroke-width:0.25;"/>
<line x1="210.000000" y1="96.160000" x2="214.000000" y2="96.160000"  style="stroke:black; stroke-linecap:round; stroke-width:0.25;"/>
<line x1="210.000000" y1="136.160000" x2="214.000000" y2="136.160000"  style="stroke:black; stroke-linecap:round; stroke-width:0.25;"/>
<line x1="214.000000" y1="56.160000" x2="234.000000" y2="56.160000"  style="stroke:black; stroke-linecap:round; stroke-width:0.25;"/>
<line x1="214.000000" y1="96.160000" x2="234.000000" y2="96.160000"  style="stroke:black; stroke-linecap:round; stroke-width:0.25;"/>
<line x1="214.000000" y1="136.160000" x2="234.000000" y2="136.160000"  style="stroke:black; stroke-linecap:round; stroke-width:0.25;"/>
<line x1="225.480000" y1="24.080000" x2="76.000000" y2="24.080000"  style="stroke:black; stroke-linecap:round; stroke-width:0.25;"/>
<line x1="225.480000" y1="32.080000" x2="76.000000" y2="32.080000"  style="stroke:black; stroke-linecap:round; stroke-width:0.25;"/>
<line x1="229.480000" y1="24.080000" x2="225.480000" y2="24.080000"  style="stroke:black; stroke-linecap:round; stroke-width:0.25;"/>
<line x1="229.480000" y1="32.080000" x2="225.480000" y2="32.080000"  style="stroke:black; stroke-linecap:round; stroke-width:0.25;"/>
<line x1="230.000000" y1="192.160000" x2="234.000000" y2="192.160000"  style="stroke:black; stroke-linecap:round; stroke-width:0.25;"/>
<line x1="233.480000" y1="24.080000" x2="229.480000" y2="24.080000"  style="stroke:black; stroke-linecap:round; stroke-width:0.25;"/>
<line x1="233.480000" y1="32.080000" x2="229.480000" y2="32.080000"  style="stroke:black; stroke-linecap:round; stroke-width:0.25;"/>
<line x1="234.000000" y1="56.160000" x2="307.000000" y2="86.160000"  style="stroke:black; stroke-linecap:round; stroke-width:0.25;"/>
<line x1="234.000000" y1="96.160000" x2="307.000000" y2="146.160000"  style="stroke:black; stroke-linecap:round; stroke-width:0.25;"/>
<line x1="234.000000" y1="136.160000" x2="307.000000" y2="86.160000"  style="stroke:black; stroke-linecap:round; stroke-width:0.25;"/>
<line x1="234.000000" y1="192.160000" x2="307.000000" y2="146.160000"  style="stroke:black; stroke-linecap:round; stroke-width:0.25;"/>
<line x1="241.520000" y1="24.080000" x2="233.480000" y2="32.080000"  style="stroke:black; stroke-linecap:round; stroke-width:0.25;"/>
<line x1="241.520000" y1="32.080000" x2="233.480000" y2="24.080000"  style="stroke:black; stroke-linecap:round; stroke-width:0.25;"/>
<line x1="245.520000" y1="24.080000" x2="241.520000" y2="24.080000"  style="stroke:black; stroke-linecap:round; stroke-width:0.25;"/>
<line x1="245.520000" y1="32.080000" x2="241.520000" y2="32.080000"  style="stroke:black; stroke-linecap:round; stroke-width:0.25;"/>
<line x1="249.520000" y1="24.080000" x2="245.520000" y2="24.080000"  style="stroke:black; stroke-linecap:round; stroke-width:0.25;"/>
<line x1="249.520000" y1="32.080000" x2="245.520000" y2="32.080000"  style="stroke:black; stroke-linecap:round; stroke-width:0.25;"/>
<line x1="307.000000" y1="86.160000" x2="333.000000" y2="86.160000"  style="stroke:black; stroke-linecap:round; stroke-width:0.25;"/>
<line x1="307.000000" y1="146.160000" x2="317.000000" y2="146.160000"  style="stroke:black; stroke-linecap:round; stroke-width:0.25;"/>
<line x1="317.000000" y1="146.160000" x2="333.000000" y2="146.160000"  style="stroke:black; stroke-linecap:round; stroke-width:0.25;"/>
<line x1="333.000000" y1="86.160000" x2="359.000000" y2="86.160000"  style="stroke:black; stroke-linecap:round; stroke-width:0.25;"/>
<line x1="333.000000" y1="146.160000" x2="349.000000" y2="146.160000"  style="stroke:black; stroke-linecap:round; stroke-width:0.25;"/>
<line x1="345.000000" y1="116.160000" x2="349.000000" y2="116.160000"  style="stroke:black; stroke-linecap:round; stroke-width:0.25;"/>
<line x1="345.000000" y1="166.160000" x2="349.000000" y2="166.160000"  style="stroke:black; stroke-linecap:round; stroke-width:0.25;"/>
<line x1="349.000000" y1="116.160000" x2="359.000000" y2="116.160000"  style="stroke:black; stroke-linecap:round; stroke-width:0.25;"/>
<line x1="349.000000" y1="146.160000" x2="357.000000" y2="146.160000"  style="stroke:black; stroke-linecap:round; stroke-width:0.25;"/>
<line x1="349.000000" y1="166.160000" x2="357.000000" y2="166.160000"  style="stroke:black; stroke-linecap:round; stroke-width:0.25;"/>
<line x1="357.000000" y1="146.160000" x2="357.000000" y2="158.160000"  style="stroke:black; stroke-linecap:round; stroke-width:0.25;"/>
<line x1="357.000000" y1="158.160000" x2="357.000000" y2="158.160000"  style="stroke:black; stroke-linecap:round; stroke-width:0.25;"/>
<line x1="357.000000" y1="158.160000" x2="361.000000" y2="158.160000"  style="stroke:black; stroke-linecap:round; stroke-width:0.25;"/>
<line x1="357.000000" y1="166.160000" x2="361.000000" y2="166.160000"  style="stroke:black; stroke-linecap:round; stroke-width:0.25;"/>
<line x1="359.000000" y1="86.160000" x2="367.000000" y2="86.160000"  style="stroke:black; stroke-linecap:round; stroke-width:0.25;"/>
<line x1="359.000000" y1="116.160000" x2="367.000000" y2="116.160000"  style="stroke:black; stroke-linecap:round; stroke-width:0.25;"/>
<line x1="367.000000" y1="86.160000" x2="367.000000" y2="108.160000"  style="stroke:black; stroke-linecap:round; stroke-width:0.25;"/>
<line x1="367.000000" y1="108.160000" x2="367.000000" y2="108.160000"  style="stroke:black; stroke-linecap:round; stroke-width:0.25;"/>
<line x1="367.000000" y1="108.160000" x2="371.000000" y2="108.160000"  style="stroke:black; stroke-linecap:round; stroke-width:0.25;"/>
<line x1="367.000000" y1="116.160000" x2="371.000000" y2="116.160000"  style="stroke:black; stroke-linecap:round; stroke-width:0.25;"/>
<line x1="385.000000" y1="162.160000" x2="389.000000" y2="162.160000"  style="stroke:black; stroke-linecap:round; stroke-width:0.25;"/>
<line x1="389.000000" y1="162.160000" x2="399.000000" y2="162.160000"  style="stroke:black; stroke-linecap:round; stroke-width:0.25;"/>
<line x1="395.000000" y1="112.160000" x2="399.000000" y2="112.160000"  style="stroke:black; stroke-linecap:round; stroke-width:0.25;"/>
<line x1="399.000000" y1="24.080000" x2="249.520000" y2="24.080000"  style="stroke:black; stroke-linecap:round; stroke-width:0.25;"/>
<line x1="399.000000" y1="32.080000" x2="249.520000" y2="32.080000"  style="stroke:black; stroke-linecap:round; stroke-width:0.25;"/>
<line x1="399.000000" y1="32.080000" x2="399.000000" y2="32.080000"  style="stroke:black; stroke-linecap:round; stroke-width:0.25;"/>
<line x1="399.000000" y1="108.160000" x2="399.000000" y2="32.080000"  style="stroke:black; stroke-linecap:round; stroke-width:0.25;"/>
<line x1="399.000000" y1="112.160000" x2="401.000000" y2="112.160000"  style="stroke:black; stroke-linecap:round; stroke-width:0.25;"/>
<line x1="399.000000" y1="162.160000" x2="409.000000" y2="162.160000"  style="stroke:black; stroke-linecap:round; stroke-width:0.25;"/>
<line x1="401.000000" y1="112.160000" x2="415.000000" y2="112.160000"  style="stroke:black; stroke-linecap:round; stroke-width:0.25;"/>
<line x1="407.000000" y1="24.080000" x2="399.000000" y2="24.080000"  style="stroke:black; stroke-linecap:round; stroke-width:0.25;"/>
<line x1="407.000000" y1="158.160000" x2="407.000000" y2="24.080000"  style="stroke:black; stroke-linecap:round; stroke-width:0.25;"/>
<line x1="409.000000" y1="162.160000" x2="415.000000" y2="162.160000"  style="stroke:black; stroke-linecap:round; stroke-width:0.25;"/>
<line x1="415.000000" y1="112.160000" x2="423.000000" y2="112.160000"  style="stroke:black; stroke-linecap:round; stroke-width:0.25;"/>
<line x1="415.000000" y1="128.080000" x2="423.000000" y2="128.080000"  style="stroke:black; stroke-linecap:round; stroke-width:0.25;"/>
<line x1="415.000000" y1="162.160000" x2="415.000000" y2="128.080000"  style="stroke:black; stroke-linecap:round; stroke-width:0.25;"/>
<line x1="415.000000" y1="162.160000" x2="415.000000" y2="162.160000"  style="stroke:black; stroke-linecap:round; stroke-width:0.25;"/>
<line x1="423.000000" y1="112.160000" x2="423.000000" y2="120.080000"  style="stroke:black; stroke-linecap:round; stroke-width:0.25;"/>
<line x1="423.000000" y1="120.080000" x2="423.000000" y2="120.080000"  style="stroke:black; stroke-linecap:round; stroke-width:0.25;"/>
<line x1="423.000000" y1="120.080000" x2="427.000000" y2="120.080000"  style="stroke:black; stroke-linecap:round; stroke-width:0.25;"/>
<line x1="423.000000" y1="128.080000" x2="427.000000" y2="128.080000"  style="stroke:black; stroke-linecap:round; stroke-width:0.25;"/>
<line x1="427.000000" y1="120.080000" x2="431.000000" y2="120.080000"  style="stroke:black; stroke-linecap:round; stroke-width:0.25;"/>
<line x1="427.000000" y1="128.080000" x2="431.000000" y2="128.080000"  style="stroke:black; stroke-linecap:round; stroke-width:0.25;"/>
<line x1="431.000000" y1="120.080000" x2="441.000000" y2="120.080000"  style="stroke:black; stroke-linecap:round; stroke-width:0.25;"/>
<line x1="431.000000" y1="128.080000" x2="441.000000" y2="128.080000"  style="stroke:black; stroke-linecap:round; stroke-width:0.25;"/>
</svg>
