<?xml version="1.0"?>
<svg xmlns="http://www.w3.org/2000/svg" xmlns:xlink="http://www.w3.org/1999/xlink" viewBox="0 0 523.500000 236.000000" width="261.750000mm" height="118.000000mm" version="1.1">
<rect x="1.000000" y="1.000000" width="522.500000" height="235.000000" rx="0" ry="0" style="stroke:none;fill:#cccccc;"/>
<rect x="0.000000" y="0.000000" width="522.500000" height="235.000000" rx="0" ry="0" style="stroke:none;fill:#ffffff;"/>
<text x="10.000000" y="7.000000" font-family="Arial" font-size="7"></text>
<a xlink:href="rev-0x60001784a5b0.svg">
<rect x="193.850000" y="25.000000" width="24.000000" height="24.000000" rx="0" ry="0" style="stroke:none;fill:#cccccc;"/>
<rect x="192.850000" y="24.000000" width="24.000000" height="24.000000" rx="0" ry="0" style="stroke:none;fill:#003366;"/>
</a>
<a xlink:href="rev-0x60001784a5b0.svg">
<text x="204.850000" y="38.000000" font-family="Arial" font-size="7" text-anchor="middle" fill="#FFFFFF">rev</text>
</a>
<circle cx="194.850000" cy="26.000000" r="1"/>
<line x1="189.850000" y1="35.000000" x2="192.850000" y2="36.000000"  transform="rotate(0.000000,192.850000,36.000000)" style="stroke: black; stroke-width:0.25;"/>
<line x1="189.850000" y1="37.000000" x2="192.850000" y2="36.000000"  transform="rotate(0.000000,192.850000,36.000000)" style="stroke: black; stroke-width:0.25;"/>
<rect x="122.000000" y="67.000000" width="167.700000" height="24.000000" rx="0" ry="0" style="stroke:none;fill:#cccccc;"/>
<rect x="121.000000" y="66.000000" width="167.700000" height="24.000000" rx="0" ry="0" style="stroke:none;fill:#477881;"/>
<text x="204.850000" y="80.000000" font-family="Arial" font-size="7" text-anchor="middle" fill="#FFFFFF">hslider(wet, 0.5f, 0.0f, 1.0f, 0.01f)</text>
<circle cx="123.000000" cy="68.000000" r="1"/>
<line x1="112.000000" y1="57.000000" x2="112.000000" y2="99.000000"  style="stroke: black; stroke-linecap:round; stroke-width:0.25; stroke-dasharray:3,3;"/>
<line x1="112.000000" y1="99.000000" x2="297.700000" y2="99.000000"  style="stroke: black; stroke-linecap:round; stroke-width:0.25; stroke-dasharray:3,3;"/>
<line x1="297.700000" y1="99.000000" x2="297.700000" y2="57.000000"  style="stroke: black; stroke-linecap:round; stroke-width:0.25; stroke-dasharray:3,3;"/>
<line x1="112.000000" y1="57.000000" x2="117.000000" y2="57.000000"  style="stroke: black; stroke-linecap:round; stroke-width:0.25; stroke-dasharray:3,3;"/>
<line x1="133.125000" y1="57.000000" x2="297.700000" y2="57.000000"  style="stroke: black; stroke-linecap:round; stroke-width:0.25; stroke-dasharray:3,3;"/>
<text x="117.000000" y="59.000000" font-family="Arial" font-size="7">wet</text>
<rect x="315.700000" y="51.000000" width="24.000000" height="24.000000" rx="0" ry="0" style="stroke:none;fill:#cccccc;"/>
<rect x="314.700000" y="50.000000" width="24.000000" height="24.000000" rx="0" ry="0" style="stroke:none;fill:#4B71A1;"/>
<text x="326.700000" y="64.000000" font-family="Arial" font-size="7" text-anchor="middle" fill="#FFFFFF">*</text>
<circle cx="316.700000" cy="52.000000" r="1"/>
<line x1="311.700000" y1="57.000000" x2="314.700000" y2="58.000000"  transform="rotate(0.000000,314.700000,58.000000)" style="stroke: black; stroke-width:0.25;"/>
<line x1="311.700000" y1="59.000000" x2="314.700000" y2="58.000000"  transform="rotate(0.000000,314.700000,58.000000)" style="stroke: black; stroke-width:0.25;"/>
<line x1="311.700000" y1="65.000000" x2="314.700000" y2="66.000000"  transform="rotate(0.000000,314.700000,66.000000)" style="stroke: black; stroke-width:0.25;"/>
<line x1="311.700000" y1="67.000000" x2="314.700000" y2="66.000000"  transform="rotate(0.000000,314.700000,66.000000)" style="stroke: black; stroke-width:0.25;"/>
<rect x="173.850000" y="127.000000" width="24.000000" height="24.000000" rx="0" ry="0" style="stroke:none;fill:#cccccc;"/>
<rect x="172.850000" y="126.000000" width="24.000000" height="24.000000" rx="0" ry="0" style="stroke:none;fill:#f44800;"/>
<text x="184.850000" y="140.000000" font-family="Arial" font-size="7" text-anchor="middle" fill="#FFFFFF">1</text>
<circle cx="174.850000" cy="128.000000" r="1"/>
<line x1="163.850000" y1="117.000000" x2="163.850000" y2="159.000000"  style="stroke: black; stroke-linecap:round; stroke-width:0.25; stroke-dasharray:3,3;"/>
<line x1="163.850000" y1="159.000000" x2="205.850000" y2="159.000000"  style="stroke: black; stroke-linecap:round; stroke-width:0.25; stroke-dasharray:3,3;"/>
<line x1="205.850000" y1="159.000000" x2="205.850000" y2="117.000000"  style="stroke: black; stroke-linecap:round; stroke-width:0.25; stroke-dasharray:3,3;"/>
<line x1="163.850000" y1="117.000000" x2="168.850000" y2="117.000000"  style="stroke: black; stroke-linecap:round; stroke-width:0.25; stroke-dasharray:3,3;"/>
<line x1="181.750000" y1="117.000000" x2="205.850000" y2="117.000000"  style="stroke: black; stroke-linecap:round; stroke-width:0.25; stroke-dasharray:3,3;"/>
<text x="168.850000" y="119.000000" font-family="Arial" font-size="7">nb</text>
<rect x="102.000000" y="179.000000" width="167.700000" height="24.000000" rx="0" ry="0" style="stroke:none;fill:#cccccc;"/>
<rect x="101.000000" y="178.000000" width="167.700000" height="24.000000" rx="0" ry="0" style="stroke:none;fill:#477881;"/>
<text x="184.850000" y="192.000000" font-family="Arial" font-size="7" text-anchor="middle" fill="#FFFFFF">hslider(wet, 0.5f, 0.0f, 1.0f, 0.01f)</text>
<circle cx="103.000000" cy="180.000000" r="1"/>
<line x1="92.000000" y1="169.000000" x2="92.000000" y2="211.000000"  style="stroke: black; stroke-linecap:round; stroke-width:0.25; stroke-dasharray:3,3;"/>
<line x1="92.000000" y1="211.000000" x2="277.700000" y2="211.000000"  style="stroke: black; stroke-linecap:round; stroke-width:0.25; stroke-dasharray:3,3;"/>
<line x1="277.700000" y1="211.000000" x2="277.700000" y2="169.000000"  style="stroke: black; stroke-linecap:round; stroke-width:0.25; stroke-dasharray:3,3;"/>
<line x1="92.000000" y1="169.000000" x2="97.000000" y2="169.000000"  style="stroke: black; stroke-linecap:round; stroke-width:0.25; stroke-dasharray:3,3;"/>
<line x1="113.125000" y1="169.000000" x2="277.700000" y2="169.000000"  style="stroke: black; stroke-linecap:round; stroke-width:0.25; stroke-dasharray:3,3;"/>
<text x="97.000000" y="171.000000" font-family="Arial" font-size="7">wet</text>
<rect x="295.700000" y="153.000000" width="24.000000" height="24.000000" rx="0" ry="0" style="stroke:none;fill:#cccccc;"/>
<rect x="294.700000" y="152.000000" width="24.000000" height="24.000000" rx="0" ry="0" style="stroke:none;fill:#4B71A1;"/>
<text x="306.700000" y="166.000000" font-family="Arial" font-size="7" text-anchor="middle" fill="#FFFFFF">-</text>
<circle cx="296.700000" cy="154.000000" r="1"/>
<line x1="291.700000" y1="159.000000" x2="294.700000" y2="160.000000"  transform="rotate(0.000000,294.700000,160.000000)" style="stroke: black; stroke-width:0.25;"/>
<line x1="291.700000" y1="161.000000" x2="294.700000" y2="160.000000"  transform="rotate(0.000000,294.700000,160.000000)" style="stroke: black; stroke-width:0.25;"/>
<line x1="291.700000" y1="167.000000" x2="294.700000" y2="168.000000"  transform="rotate(0.000000,294.700000,168.000000)" style="stroke: black; stroke-width:0.25;"/>
<line x1="291.700000" y1="169.000000" x2="294.700000" y2="168.000000"  transform="rotate(0.000000,294.700000,168.000000)" style="stroke: black; stroke-width:0.25;"/>
<rect x="335.700000" y="149.000000" width="24.000000" height="24.000000" rx="0" ry="0" style="stroke:none;fill:#cccccc;"/>
<rect x="334.700000" y="148.000000" width="24.000000" height="24.000000" rx="0" ry="0" style="stroke:none;fill:#4B71A1;"/>
<text x="346.700000" y="162.000000" font-family="Arial" font-size="7" text-anchor="middle" fill="#FFFFFF">*</text>
<circle cx="336.700000" cy="150.000000" r="1"/>
<line x1="331.700000" y1="155.000000" x2="334.700000" y2="156.000000"  transform="rotate(0.000000,334.700000,156.000000)" style="stroke: black; stroke-width:0.25;"/>
<line x1="331.700000" y1="157.000000" x2="334.700000" y2="156.000000"  transform="rotate(0.000000,334.700000,156.000000)" style="stroke: black; stroke-width:0.25;"/>
<line x1="331.700000" y1="163.000000" x2="334.700000" y2="164.000000"  transform="rotate(0.000000,334.700000,164.000000)" style="stroke: black; stroke-width:0.25;"/>
<line x1="331.700000" y1="165.000000" x2="334.700000" y2="164.000000"  transform="rotate(0.000000,334.700000,164.000000)" style="stroke: black; stroke-width:0.25;"/>
<a xlink:href="gain-0x600013af8a20.svg">
<rect x="426.700000" y="111.000000" width="25.800000" height="24.000000" rx="0" ry="0" style="stroke:none;fill:#cccccc;"/>
<rect x="425.700000" y="110.000000" width="25.800000" height="24.000000" rx="0" ry="0" style="stroke:none;fill:#003366;"/>
</a>
<a xlink:href="gain-0x600013af8a20.svg">
<text x="438.600000" y="124.000000" font-family="Arial" font-size="7" text-anchor="middle" fill="#FFFFFF">gain</text>
</a>
<circle cx="427.700000" cy="112.000000" r="1"/>
<rect x="468.500000" y="107.000000" width="24.000000" height="24.000000" rx="0" ry="0" style="stroke:none;fill:#cccccc;"/>
<rect x="467.500000" y="106.000000" width="24.000000" height="24.000000" rx="0" ry="0" style="stroke:none;fill:#4B71A1;"/>
<text x="479.500000" y="120.000000" font-family="Arial" font-size="7" text-anchor="middle" fill="#FFFFFF">*</text>
<circle cx="469.500000" cy="108.000000" r="1"/>
<line x1="464.500000" y1="113.000000" x2="467.500000" y2="114.000000"  transform="rotate(0.000000,467.500000,114.000000)" style="stroke: black; stroke-width:0.25;"/>
<line x1="464.500000" y1="115.000000" x2="467.500000" y2="114.000000"  transform="rotate(0.000000,467.500000,114.000000)" style="stroke: black; stroke-width:0.25;"/>
<line x1="464.500000" y1="121.000000" x2="467.500000" y2="122.000000"  transform="rotate(0.000000,467.500000,122.000000)" style="stroke: black; stroke-width:0.25;"/>
<line x1="464.500000" y1="123.000000" x2="467.500000" y2="122.000000"  transform="rotate(0.000000,467.500000,122.000000)" style="stroke: black; stroke-width:0.25;"/>
<line x1="15.000000" y1="15.000000" x2="15.000000" y2="221.000000"  style="stroke: black; stroke-linecap:round; stroke-width:0.25; stroke-dasharray:3,3;"/>
<line x1="15.000000" y1="221.000000" x2="508.500000" y2="221.000000"  style="stroke: black; stroke-linecap:round; stroke-width:0.25; stroke-dasharray:3,3;"/>
<line x1="508.500000" y1="221.000000" x2="508.500000" y2="15.000000"  style="stroke: black; stroke-linecap:round; stroke-width:0.25; stroke-dasharray:3,3;"/>
<line x1="15.000000" y1="15.000000" x2="20.000000" y2="15.000000"  style="stroke: black; stroke-linecap:round; stroke-width:0.25; stroke-dasharray:3,3;"/>
<line x1="49.025000" y1="15.000000" x2="508.500000" y2="15.000000"  style="stroke: black; stroke-linecap:round; stroke-width:0.25; stroke-dasharray:3,3;"/>
<text x="20.000000" y="17.000000" font-family="Arial" font-size="7">process</text>
<line x1="510.500000" y1="117.000000" x2="513.500000" y2="118.000000"  transform="rotate(0.000000,513.500000,118.000000)" style="stroke: black; stroke-width:0.25;"/>
<line x1="510.500000" y1="119.000000" x2="513.500000" y2="118.000000"  transform="rotate(0.000000,513.500000,118.000000)" style="stroke: black; stroke-width:0.25;"/>
<line x1="10.000000" y1="118.000000" x2="20.000000" y2="118.000000"  style="stroke:black; stroke-linecap:round; stroke-width:0.25;"/>
<line x1="20.000000" y1="118.000000" x2="24.000000" y2="118.000000"  style="stroke:black; stroke-linecap:round; stroke-width:0.25;"/>
<line x1="24.000000" y1="118.000000" x2="28.000000" y2="118.000000"  style="stroke:black; stroke-linecap:round; stroke-width:0.25;"/>
<line x1="28.000000" y1="118.000000" x2="28.000000" y2="118.000000"  style="stroke:black; stroke-linecap:round; stroke-width:0.25;"/>
<line x1="28.000000" y1="118.000000" x2="32.000000" y2="118.000000"  style="stroke:black; stroke-linecap:round; stroke-width:0.25;"/>
<line x1="32.000000" y1="118.000000" x2="36.000000" y2="118.000000"  style="stroke:black; stroke-linecap:round; stroke-width:0.25;"/>
<line x1="36.000000" y1="118.000000" x2="87.000000" y2="36.000000"  style="stroke:black; stroke-linecap:round; stroke-width:0.25;"/>
<line x1="36.000000" y1="118.000000" x2="87.000000" y2="108.000000"  style="stroke:black; stroke-linecap:round; stroke-width:0.25;"/>
<line x1="87.000000" y1="36.000000" x2="107.000000" y2="36.000000"  style="stroke:black; stroke-linecap:round; stroke-width:0.25;"/>
<line x1="87.000000" y1="108.000000" x2="204.850000" y2="108.000000"  style="stroke:black; stroke-linecap:round; stroke-width:0.25;"/>
<line x1="107.000000" y1="36.000000" x2="188.850000" y2="36.000000"  style="stroke:black; stroke-linecap:round; stroke-width:0.25;"/>
<line x1="188.850000" y1="36.000000" x2="192.850000" y2="36.000000"  style="stroke:black; stroke-linecap:round; stroke-width:0.25;"/>
<line x1="196.850000" y1="138.000000" x2="200.850000" y2="138.000000"  style="stroke:black; stroke-linecap:round; stroke-width:0.25;"/>
<line x1="200.850000" y1="138.000000" x2="210.850000" y2="138.000000"  style="stroke:black; stroke-linecap:round; stroke-width:0.25;"/>
<line x1="204.850000" y1="108.000000" x2="322.700000" y2="108.000000"  style="stroke:black; stroke-linecap:round; stroke-width:0.25;"/>
<line x1="210.850000" y1="138.000000" x2="282.700000" y2="138.000000"  style="stroke:black; stroke-linecap:round; stroke-width:0.25;"/>
<line x1="216.850000" y1="36.000000" x2="220.850000" y2="36.000000"  style="stroke:black; stroke-linecap:round; stroke-width:0.25;"/>
<line x1="220.850000" y1="36.000000" x2="302.700000" y2="36.000000"  style="stroke:black; stroke-linecap:round; stroke-width:0.25;"/>
<line x1="268.700000" y1="190.000000" x2="272.700000" y2="190.000000"  style="stroke:black; stroke-linecap:round; stroke-width:0.25;"/>
<line x1="272.700000" y1="190.000000" x2="282.700000" y2="190.000000"  style="stroke:black; stroke-linecap:round; stroke-width:0.25;"/>
<line x1="282.700000" y1="138.000000" x2="290.700000" y2="138.000000"  style="stroke:black; stroke-linecap:round; stroke-width:0.25;"/>
<line x1="282.700000" y1="168.000000" x2="290.700000" y2="168.000000"  style="stroke:black; stroke-linecap:round; stroke-width:0.25;"/>
<line x1="282.700000" y1="190.000000" x2="282.700000" y2="168.000000"  style="stroke:black; stroke-linecap:round; stroke-width:0.25;"/>
<line x1="282.700000" y1="190.000000" x2="282.700000" y2="190.000000"  style="stroke:black; stroke-linecap:round; stroke-width:0.25;"/>
<line x1="288.700000" y1="78.000000" x2="292.700000" y2="78.000000"  style="stroke:black; stroke-linecap:round; stroke-width:0.25;"/>
<line x1="290.700000" y1="138.000000" x2="290.700000" y2="160.000000"  style="stroke:black; stroke-linecap:round; stroke-width:0.25;"/>
<line x1="290.700000" y1="160.000000" x2="290.700000" y2="160.000000"  style="stroke:black; stroke-linecap:round; stroke-width:0.25;"/>
<line x1="290.700000" y1="160.000000" x2="294.700000" y2="160.000000"  style="stroke:black; stroke-linecap:round; stroke-width:0.25;"/>
<line x1="290.700000" y1="168.000000" x2="294.700000" y2="168.000000"  style="stroke:black; stroke-linecap:round; stroke-width:0.25;"/>
<line x1="292.700000" y1="78.000000" x2="302.700000" y2="78.000000"  style="stroke:black; stroke-linecap:round; stroke-width:0.25;"/>
<line x1="302.700000" y1="36.000000" x2="310.700000" y2="36.000000"  style="stroke:black; stroke-linecap:round; stroke-width:0.25;"/>
<line x1="302.700000" y1="66.000000" x2="310.700000" y2="66.000000"  style="stroke:black; stroke-linecap:round; stroke-width:0.25;"/>
<line x1="302.700000" y1="78.000000" x2="302.700000" y2="66.000000"  style="stroke:black; stroke-linecap:round; stroke-width:0.25;"/>
<line x1="302.700000" y1="78.000000" x2="302.700000" y2="78.000000"  style="stroke:black; stroke-linecap:round; stroke-width:0.25;"/>
<line x1="310.700000" y1="36.000000" x2="310.700000" y2="58.000000"  style="stroke:black; stroke-linecap:round; stroke-width:0.25;"/>
<line x1="310.700000" y1="58.000000" x2="310.700000" y2="58.000000"  style="stroke:black; stroke-linecap:round; stroke-width:0.25;"/>
<line x1="310.700000" y1="58.000000" x2="314.700000" y2="58.000000"  style="stroke:black; stroke-linecap:round; stroke-width:0.25;"/>
<line x1="310.700000" y1="66.000000" x2="314.700000" y2="66.000000"  style="stroke:black; stroke-linecap:round; stroke-width:0.25;"/>
<line x1="318.700000" y1="164.000000" x2="322.700000" y2="164.000000"  style="stroke:black; stroke-linecap:round; stroke-width:0.25;"/>
<line x1="322.700000" y1="108.000000" x2="330.700000" y2="108.000000"  style="stroke:black; stroke-linecap:round; stroke-width:0.25;"/>
<line x1="322.700000" y1="164.000000" x2="330.700000" y2="164.000000"  style="stroke:black; stroke-linecap:round; stroke-width:0.25;"/>
<line x1="330.700000" y1="108.000000" x2="330.700000" y2="156.000000"  style="stroke:black; stroke-linecap:round; stroke-width:0.25;"/>
<line x1="330.700000" y1="156.000000" x2="330.700000" y2="156.000000"  style="stroke:black; stroke-linecap:round; stroke-width:0.25;"/>
<line x1="330.700000" y1="156.000000" x2="334.700000" y2="156.000000"  style="stroke:black; stroke-linecap:round; stroke-width:0.25;"/>
<line x1="330.700000" y1="164.000000" x2="334.700000" y2="164.000000"  style="stroke:black; stroke-linecap:round; stroke-width:0.25;"/>
<line x1="338.700000" y1="62.000000" x2="342.700000" y2="62.000000"  style="stroke:black; stroke-linecap:round; stroke-width:0.25;"/>
<line x1="342.700000" y1="62.000000" x2="362.700000" y2="62.000000"  style="stroke:black; stroke-linecap:round; stroke-width:0.25;"/>
<line x1="358.700000" y1="160.000000" x2="362.700000" y2="160.000000"  style="stroke:black; stroke-linecap:round; stroke-width:0.25;"/>
<line x1="362.700000" y1="62.000000" x2="421.700000" y2="102.000000"  style="stroke:black; stroke-linecap:round; stroke-width:0.25;"/>
<line x1="362.700000" y1="160.000000" x2="421.700000" y2="102.000000"  style="stroke:black; stroke-linecap:round; stroke-width:0.25;"/>
<line x1="421.700000" y1="102.000000" x2="438.600000" y2="102.000000"  style="stroke:black; stroke-linecap:round; stroke-width:0.25;"/>
<line x1="438.600000" y1="102.000000" x2="455.500000" y2="102.000000"  style="stroke:black; stroke-linecap:round; stroke-width:0.25;"/>
<line x1="451.500000" y1="122.000000" x2="455.500000" y2="122.000000"  style="stroke:black; stroke-linecap:round; stroke-width:0.25;"/>
<line x1="455.500000" y1="102.000000" x2="463.500000" y2="102.000000"  style="stroke:black; stroke-linecap:round; stroke-width:0.25;"/>
<line x1="455.500000" y1="122.000000" x2="463.500000" y2="122.000000"  style="stroke:black; stroke-linecap:round; stroke-width:0.25;"/>
<line x1="463.500000" y1="102.000000" x2="463.500000" y2="114.000000"  style="stroke:black; stroke-linecap:round; stroke-width:0.25;"/>
<line x1="463.500000" y1="114.000000" x2="463.500000" y2="114.000000"  style="stroke:black; stroke-linecap:round; stroke-width:0.25;"/>
<line x1="463.500000" y1="114.000000" x2="467.500000" y2="114.000000"  style="stroke:black; stroke-linecap:round; stroke-width:0.25;"/>
<line x1="463.500000" y1="122.000000" x2="467.500000" y2="122.000000"  style="stroke:black; stroke-linecap:round; stroke-width:0.25;"/>
<line x1="491.500000" y1="118.000000" x2="495.500000" y2="118.000000"  style="stroke:black; stroke-linecap:round; stroke-width:0.25;"/>
<line x1="495.500000" y1="118.000000" x2="495.500000" y2="118.000000"  style="stroke:black; stroke-linecap:round; stroke-width:0.25;"/>
<line x1="495.500000" y1="118.000000" x2="499.500000" y2="118.000000"  style="stroke:black; stroke-linecap:round; stroke-width:0.25;"/>
<line x1="499.500000" y1="118.000000" x2="503.500000" y2="118.000000"  style="stroke:black; stroke-linecap:round; stroke-width:0.25;"/>
<line x1="503.500000" y1="118.000000" x2="513.500000" y2="118.000000"  style="stroke:black; stroke-linecap:round; stroke-width:0.25;"/>
</svg>
